<?xml version="1.0" encoding="UTF-8" standalone="no"?>
<!-- Created with Inkscape (http://www.inkscape.org/) -->

<svg
   xmlns:dc="http://purl.org/dc/elements/1.1/"
   xmlns:cc="http://creativecommons.org/ns#"
   xmlns:rdf="http://www.w3.org/1999/02/22-rdf-syntax-ns#"
   xmlns:svg="http://www.w3.org/2000/svg"
   xmlns="http://www.w3.org/2000/svg"
   xmlns:sodipodi="http://sodipodi.sourceforge.net/DTD/sodipodi-0.dtd"
   xmlns:inkscape="http://www.inkscape.org/namespaces/inkscape"
   width="300"
   height="300"
   id="svg2"
   version="1.1"
   inkscape:version="0.48.4 r9939"
   sodipodi:docname="02_wieauchimmer.svg">
  <defs
     id="defs4" />
  <sodipodi:namedview
     id="base"
     pagecolor="#ffffff"
     bordercolor="#666666"
     borderopacity="1.0"
     inkscape:pageopacity="0.0"
     inkscape:pageshadow="2"
     inkscape:zoom="1"
     inkscape:cx="474.19846"
     inkscape:cy="118.44304"
     inkscape:document-units="px"
     inkscape:current-layer="layer1"
     showgrid="false"
     inkscape:window-width="1313"
     inkscape:window-height="664"
     inkscape:window-x="0"
     inkscape:window-y="0"
     inkscape:window-maximized="0"
     units="px"
     showguides="true"
     inkscape:guide-bbox="true">
    <sodipodi:guide
       orientation="1,0"
       position="10,143"
       id="guide3608" />
    <sodipodi:guide
       orientation="0,1"
       position="55,291"
       id="guide3610" />
    <sodipodi:guide
       orientation="0,1"
       position="120,9"
       id="guide3612" />
    <sodipodi:guide
       orientation="1,0"
       position="290,226"
       id="guide3614" />
  </sodipodi:namedview>
  <metadata
     id="metadata7">
    <rdf:RDF>
      <cc:Work
         rdf:about="">
        <dc:format>image/svg+xml</dc:format>
        <dc:type
           rdf:resource="http://purl.org/dc/dcmitype/StillImage" />
        <dc:title />
      </cc:Work>
    </rdf:RDF>
  </metadata>
  <g
     inkscape:label="Ebene 1"
     inkscape:groupmode="layer"
     id="layer1"
     transform="translate(0,-752.3608)">
    <path
       style="fill:#000000"
       d="m 81.224616,1038.4458 c -21.46615,-22.3999 -25.667387,-18.2632 -30.80341,-47.54166 -0.502294,-2.8634 -1.241298,-5.20612 -1.64223,-5.20612 -33.427039,0 -32.902784,0.64167 -36.232878,-44.34854 C 6.6856696,862.174 10.731255,779.76998 22.512429,773.4707 51.995645,757.70633 245.58862,757.38735 278.22964,773.04937 c 17.9814,8.62794 14.62417,196.46836 -3.65898,202.56626 -5.71139,1.90491 -56.77084,4.97261 -142.10756,8.53782 -63.320087,2.64549 -57.362293,1.80806 -57.628057,8.10045 -0.642008,15.2006 -1.101211,14.4712 11.878213,42.836 7.707691,16.8441 7.53712,16.9484 -5.48864,3.3559 z m -14.010101,-33.5553 c -6.574962,-21.1814 -2.491717,-26.75707 1.069925,-29.8551 0.592688,-0.51552 10.872213,-1.13539 27.412191,-1.65289 116.076719,-3.63188 172.333459,-6.72249 176.734519,-9.70935 9.33589,-6.33597 13.18934,-160.93179 4.56555,-178.72954 -3.97136,-8.19609 -35.67829,-11.65949 -106.63486,-11.64788 -91.906666,0.0151 -140.623795,5.31026 -145.600572,15.82585 -8.336406,17.61425 -8.135072,174.34966 0.241367,183.12881 3.066362,3.21384 16.434382,4.55955 27.069602,2.72503 4.355176,-0.75118 4.64015,-0.40282 5.300631,6.48057 2.061414,21.4836 2.086781,19.7858 10.276448,31.2027 2.852055,3.9759 2.773163,2.5664 -0.434801,-7.7682 z"
       id="path3004"
       inkscape:connector-curvature="0"
       sodipodi:nodetypes="sssssssssssssssssssssss" />
    <text
       xml:space="preserve"
       style="font-size:40.15176392px;font-style:normal;font-weight:normal;line-height:103.99999619%;letter-spacing:0px;word-spacing:0px;fill:#000000;fill-opacity:1;stroke:none;font-family:Sans"
       x="151.61446"
       y="843.14984"
       id="text3006"
       sodipodi:linespacing="104%"
       transform="scale(0.96574744,1.0354674)"><tspan
         sodipodi:role="line"
         id="tspan3008"
         x="151.61446"
         y="843.14984"
         style="font-size:70.00000032px;font-style:normal;font-variant:normal;font-weight:bold;font-stretch:normal;text-align:center;line-height:103.99999619000000450%;text-anchor:middle;font-family:Mad Beef;-inkscape-font-specification:Mad Beef Bold"><tspan
   style="letter-spacing:6.10000171px"
   id="tspan3616">Wi</tspan>e auch</tspan><tspan
         sodipodi:role="line"
         x="151.61446"
         y="921.14984"
         id="tspan3010"
         style="font-size:70.00000032px;font-style:normal;font-variant:normal;font-weight:bold;font-stretch:normal;text-align:center;text-anchor:middle;font-family:Mad Beef;-inkscape-font-specification:Mad Beef Bold">immer...</tspan></text>
  </g>
</svg>
