<?xml version="1.0" encoding="UTF-8" standalone="no"?>
<!-- Created with Inkscape (http://www.inkscape.org/) -->

<svg
   xmlns:dc="http://purl.org/dc/elements/1.1/"
   xmlns:cc="http://creativecommons.org/ns#"
   xmlns:rdf="http://www.w3.org/1999/02/22-rdf-syntax-ns#"
   xmlns:svg="http://www.w3.org/2000/svg"
   xmlns="http://www.w3.org/2000/svg"
   xmlns:sodipodi="http://sodipodi.sourceforge.net/DTD/sodipodi-0.dtd"
   xmlns:inkscape="http://www.inkscape.org/namespaces/inkscape"
   width="300"
   height="300"
   id="svg2"
   version="1.1"
   inkscape:version="0.48.4 r9939"
   sodipodi:docname="29_nochmaanfang.svg">
  <defs
     id="defs4" />
  <sodipodi:namedview
     id="base"
     pagecolor="#ffffff"
     bordercolor="#666666"
     borderopacity="1.0"
     inkscape:pageopacity="0.0"
     inkscape:pageshadow="2"
     inkscape:zoom="2.8284271"
     inkscape:cx="302.48214"
     inkscape:cy="137.58539"
     inkscape:document-units="px"
     inkscape:current-layer="text4275"
     showgrid="false"
     inkscape:window-width="1313"
     inkscape:window-height="664"
     inkscape:window-x="0"
     inkscape:window-y="0"
     inkscape:window-maximized="0"
     units="px"
     showguides="true"
     inkscape:guide-bbox="true"
     gridtolerance="10"
     guidetolerance="9">
    <sodipodi:guide
       orientation="1,0"
       position="10,143"
       id="guide3608" />
    <sodipodi:guide
       orientation="0,1"
       position="55,291"
       id="guide3610" />
    <sodipodi:guide
       orientation="0,1"
       position="183,20"
       id="guide3612" />
    <sodipodi:guide
       orientation="1,0"
       position="280,36"
       id="guide3614" />
  </sodipodi:namedview>
  <metadata
     id="metadata7">
    <rdf:RDF>
      <cc:Work
         rdf:about="">
        <dc:format>image/svg+xml</dc:format>
        <dc:type
           rdf:resource="http://purl.org/dc/dcmitype/StillImage" />
        <dc:title></dc:title>
      </cc:Work>
    </rdf:RDF>
  </metadata>
  <g
     inkscape:label="Ebene 1"
     inkscape:groupmode="layer"
     id="layer1"
     transform="translate(0,-752.3608)">
    <path
       style="fill:#ffffff;stroke:#000000;stroke-width:1px;stroke-linecap:butt;stroke-linejoin:miter;stroke-opacity:1"
       d="m 27,26 61,-9 111,1 76,6 7,14 2,133 -10,43 -131,12 -75,3 5,39 -15,-15 -7,-24 -29,-6 -8,-43 1,-111 2,-31 z"
       id="path3303"
       inkscape:connector-curvature="0"
       transform="translate(0,752.3608)" />
    <path
       style="fill:#000000"
       d="m 81.224616,1038.4458 c -21.46615,-22.3999 -25.667387,-18.2632 -30.80341,-47.54166 -0.502294,-2.8634 -1.241298,-5.20612 -1.64223,-5.20612 -33.427039,0 -32.902784,0.64167 -36.232878,-44.34854 C 6.6856696,862.174 10.731255,779.76998 22.512429,773.4707 51.995645,757.70633 245.58862,757.38735 278.22964,773.04937 c 17.9814,8.62794 14.62417,196.46836 -3.65898,202.56626 -5.71139,1.90491 -56.77084,4.97261 -142.10756,8.53782 -63.320087,2.64549 -57.362293,1.80806 -57.628057,8.10045 -0.642008,15.2006 -1.101211,14.4712 11.878213,42.836 7.707691,16.8441 7.53712,16.9484 -5.48864,3.3559 z m -14.010101,-33.5553 c -6.574962,-21.1814 -2.491717,-26.75707 1.069925,-29.8551 0.592688,-0.51552 10.872213,-1.13539 27.412191,-1.65289 116.076719,-3.63188 172.333459,-6.72249 176.734519,-9.70935 9.33589,-6.33597 13.18934,-160.93179 4.56555,-178.72954 -3.97136,-8.19609 -35.67829,-11.65949 -106.63486,-11.64788 -91.906666,0.0151 -140.623795,5.31026 -145.600572,15.82585 -8.336406,17.61425 -8.135072,174.34966 0.241367,183.12881 3.066362,3.21384 16.434382,4.55955 27.069602,2.72503 4.355176,-0.75118 4.64015,-0.40282 5.300631,6.48057 2.061414,21.4836 2.086781,19.7858 10.276448,31.2027 2.852055,3.9759 2.773163,2.5664 -0.434801,-7.7682 z"
       id="path3004"
       inkscape:connector-curvature="0"
       sodipodi:nodetypes="sssssssssssssssssssssss" />
    <g
       transform="scale(0.89824283,1.1132847)"
       style="font-size:81.19001007px;font-style:normal;font-variant:normal;font-weight:normal;font-stretch:normal;line-height:125%;letter-spacing:0px;word-spacing:0px;fill:#000000;fill-opacity:1;stroke:none;font-family:Edmunds;-inkscape-font-specification:Edmunds"
       id="text4275">
      <path
         style="font-family:Ralph Walker;-inkscape-font-specification:Ralph Walker"
         d="m 46.295099,707.29423 c -5.046745,2.01177 -3.294848,8.80378 -6.121423,12.48733 0.777412,5.77061 -0.635881,13.41577 -0.8823,19.2571 -2.076378,-1.71309 -2.331477,-4.64045 -5.43966,-3.00381 -6.556011,0.50193 -5.170173,8.9079 -3.018386,13.24039 1.240914,4.72918 5.313311,8.22307 7.108283,12.56907 -0.509534,4.95009 -1.078834,9.85722 -1.809939,14.78809 4.591925,2.985 6.046245,-1.81052 6.461214,-4.89711 0.538662,-3.25067 -0.4095,-7.65733 3.476305,-2.55682 3.598192,3.69051 1.613581,10.8593 6.661103,13.38579 3.78142,0.50156 2.132129,-5.43439 3.640793,-5.81509 3.334748,1.28705 8.105807,4.76642 11.212435,1.81185 1.960899,-4.6841 -5.113832,-5.83498 -8.156069,-7.38954 -4.302744,-1.0204 -1.307365,-5.32085 -1.669941,-8.2437 1.670925,-14.64034 1.550794,-29.7714 5.104938,-43.89907 0.634128,-1.4321 0.363319,-7.95009 -2.477334,-5.58138 -5.98712,2.05154 -4.304116,10.18629 -6.124163,15.07089 0.46993,3.36804 -1.638645,7.62954 -1.545094,9.4035 1.283864,5.35868 -0.185584,11.66462 -0.38631,17.06717 -3.588296,2.43696 -3.992179,3.79324 -4.930193,-0.85468 -2.231585,-3.94827 -3.330553,-8.07911 -1.959244,-12.42631 0.4375,-8.67957 0.95945,-18.18705 3.732575,-25.74054 -0.102,-2.9695 2.844652,-9.29635 -2.877593,-8.67313 z m 5.917649,51.10077 c -0.317776,0.85815 0.104459,8.9673 -1.224544,6.3124 0.620139,-2.15985 -5.375963,-8.73647 1.224544,-6.3124 z"
         id="path4282"
         inkscape:connector-curvature="0" />
      <path
         style="font-family:Ralph Walker;-inkscape-font-specification:Ralph Walker"
         d="m 75.882819,743.3918 c -9.403862,1.18185 -17.480591,13.47745 -10.84375,21.71875 5.032228,5.77391 13.207343,0.14905 16.625,-3.5 3.065157,5.27685 10.226201,5.43445 15.218752,2.875 -0.58167,-3.59639 -1.793501,-6.4477 -5.406252,-4.90625 -4.387551,-0.93996 -4.781767,-6.79534 -5.5625,-10.4375 -0.427966,-3.97595 -2.939096,-1.83007 -4.34375,-3.4375 -1.343312,-1.79283 -3.534905,-2.52303 -5.6875,-2.3125 z m -0.34375,5.9375 c 5.130104,-0.68406 3.428679,6.55813 1.34375,9.03125 -1.754516,2.04652 -5.820464,2.87847 -6.5,-0.59375 -0.177984,-3.78563 0.937839,-7.16963 5.15625,-8.4375 z"
         id="path4284"
         inkscape:connector-curvature="0" />
      <path
         style="font-family:Ralph Walker;-inkscape-font-specification:Ralph Walker"
         d="m 104.70315,707.89179 c -6.818834,2.66952 -6.965624,11.89916 -7.718754,18.09375 -1.28661,9.19887 0.83741,18.52357 3.218754,27.15625 -1.805074,2.81002 -3.527994,6.66722 -7.343762,7.125 0.664233,4.6553 2.586008,6.96552 6.062508,3.0625 1.673964,-1.27031 3.182734,-3.6092 4.281254,-4.84375 2.53061,5.30146 8.11463,11.15867 14.4375,9.1875 2.0371,0.25074 2.54579,-2.36425 3.875,-4.0625 1.36814,-3.55455 -0.0749,-7.83751 -0.5,-10.9375 5.02537,1.50806 9.307,-8.16785 3.03125,-7.90625 -5.0011,0.4594 -10.5618,1.31715 -15.21875,0.0937 1.83544,-8.60745 3.67824,-17.09504 2.5635,-25.96677 0.60614,-4.4483 -0.54647,-7.30005 -3.376,-10.40823 -0.99663,-0.59419 -2.1672,-0.8012 -3.3125,-0.59375 z m 0,7.625 c 1.88039,7.48499 1.30353,15.59388 -0.0312,23.28125 -0.5808,-6.31843 -1.19394,-12.7291 -1.125,-19.09375 0.66,-1.99499 1.52691,-2.60826 1.15625,-4.1875 z m 4.15625,32.875 c 1.79622,4.02586 7.63635,4.73609 7.625,9.90625 1.25463,2.53738 -0.59755,4.69715 -2.625,2.1875 -2.60732,-3.27934 -5.94088,-8.00536 -5.96875,-12.09375 l 0.9375,-0.125 0.0312,0.125 z"
         id="path4286"
         inkscape:connector-curvature="0" />
      <path
         style="font-family:Ralph Walker;-inkscape-font-specification:Ralph Walker"
         d="m 139.89457,737.65781 c -2.9049,0.44741 -5.80512,2.90785 -7.19866,4.45464 -2.33422,5.032 -4.60613,10.83771 -2.36384,16.42036 0.44866,1.69035 -3.67199,1.97512 -3.34375,4.53125 -1.86578,4.26437 5.08137,2.58012 7.09375,0.53125 6.32309,4.08991 14.76264,0.8086 20.53125,-3.28125 1.38779,-1.77529 -1.65591,-9.5276 -5,-3.78125 -2.68368,2.24971 -6.81044,2.75654 -9.6875,0.875 2.71605,-5.03144 7.69211,-11.55625 4.6875,-17.5 3.06254,-2.56551 -3.17571,-1.90942 -4.71875,-2.25 z m -1,6.46875 c 0.47356,2.83892 -0.83733,5.77047 -2.21875,8.1875 -0.59218,-2.66026 0.0588,-6.77786 2.21875,-8.1875 z"
         id="path4288"
         inkscape:connector-curvature="0" />
      <path
         style="font-family:Ralph Walker;-inkscape-font-specification:Ralph Walker"
         d="m 160.61917,745.40781 c -6.1467,2.09896 -7.50258,9.88651 -12.48401,13.68609 -7.56016,5.20004 6.03073,2.51493 7.59763,-0.88788 1.55246,-1.63122 3.82453,-7.61418 5.01138,-2.42321 1.99611,3.24174 0.15577,8.27952 3.5,10.53125 2.25394,0.7681 4.06177,-1.42038 6.375,-1 -1.57717,-3.30556 -2.3684,-8.63527 -0.125,-11.40625 5.30256,4.69257 8.1892,14.87591 17.03125,14.03125 3.12575,-0.14095 8.08976,-1.34185 8.60882,-4.01616 -1.31259,-4.44727 -2.58718,-4.24556 -5.57757,-1.92134 -3.74728,0.6042 -6.6235,-3.45623 -8.4375,-6.125 -2.23706,-3.68819 -4.67613,-7.11225 -8.8125,-8.65625 -1.66318,-1.39962 -3.08189,1.20918 -5.28125,1.4375 -2.48197,3.22907 -2.38504,-2.34837 -4.96875,-2.9375 -0.74822,-0.36216 -1.61903,-0.39806 -2.4375,-0.3125 z"
         id="path4290"
         inkscape:connector-curvature="0" />
      <path
         style="font-family:Ralph Walker;-inkscape-font-specification:Ralph Walker"
         d="m 244.84767,722.91426 c -3.27222,2.7116 -9.24695,5.63 -12.25,1.25 -1.88645,-2.95295 -9.54927,-3.87787 -9.375,1.1875 0.31921,4.66968 5.65746,4.75642 8.625,6.5625 1.17661,2.89045 -0.0881,7.17646 -4.15625,5.28125 -5.23546,-1.51999 -6.07085,-7.14438 -7.375,-11.4375 -2.85253,-3.76112 -7.88337,-0.13348 -6.875,4.03125 0.33044,2.67792 2.50501,6.79207 -1.625,7.6875 -4.51249,0.27121 -7.02705,-4.28281 -7.21875,-8.28125 -0.43427,-3.29247 0.56467,-6.85606 -3.875,-4.84375 -2.70912,1.58108 -5.43169,3.3888 -8.84375,2.53125 0.64511,4.19708 2.4395,6.71377 5.96875,5.40625 0.72374,6.14999 4.90561,13.97951 12.3125,12.5 3.03229,-0.35775 5.19579,-3.4689 7.625,-4.46875 5.41907,6.28416 17.73164,5.1305 20.09375,-3.375 0.40533,-2.35316 -2.33043,-6.08967 1.75,-5.34375 6.5424,-0.8636 8.94763,-7.51633 11.5625,-12.75 -2.11458,1.35417 -4.22917,2.70833 -6.34375,4.0625 z"
         id="path4292"
         inkscape:connector-curvature="0" />
      <path
         style="font-family:Ralph Walker;-inkscape-font-specification:Ralph Walker"
         d="m 250.99613,706.34453 c -5.94136,1.08841 -3.40952,12.66084 2.75,9.75 4.95218,-2.16302 3.40274,-11.41111 -2.34375,-9.78125 l -0.0937,0 -0.3125,0.0312 z m 4.03125,12.09375 c -2.62123,-0.0897 -6.20121,1.05931 -4.99041,4.55715 -0.43751,8.88333 5.30651,19.42741 15.24041,19.00535 4.19268,1.58828 5.9472,-5.26147 4.03125,-6.53125 -6.53325,1.73326 -10.06018,-5.09537 -10.84375,-10.4375 -1.28374,-1.76093 0.2461,-8.62694 -3.4375,-6.59375 z"
         id="path4294"
         inkscape:connector-curvature="0" />
      <path
         style="font-family:Ralph Walker;-inkscape-font-specification:Ralph Walker"
         d="m 270.45316,718.31328 c -5.33503,3.39548 3.17872,6.99375 1.5625,11.6875 0.83995,3.97219 -4.20226,6.02646 -4.95173,8.42323 -0.0228,4.79572 3.19409,4.16204 5.82673,1.79552 3.34585,-2.76867 3.93764,-7.39806 4.625,-11.4375 5.03565,-1.27993 -0.0701,3.86762 1.25,6.4375 -0.33994,3.02742 3.82736,5.57572 0.34375,7.40625 4.79381,-0.1075 9.66583,3.19958 14.09375,-0.0937 2.88955,-1.01153 5.95395,-5.16173 2.40625,-7.34375 -3.24034,-4.79125 -1.96425,3.45935 -5.75,2.21875 -5.08665,-1.65209 -5.58568,-9.0251 -1.9375,-12.40625 2.39868,-3.30339 -3.1221,-5.72076 -5.75,-3.78125 -4.43335,1.85834 -7.88667,-4.03007 -11.37359,-3.21196 l -0.34516,0.30571 z"
         id="path4296"
         inkscape:connector-curvature="0" />
      <path
         style="font-family:Ralph Walker;-inkscape-font-specification:Ralph Walker"
         d="m 121.91797,795.2371 c -6.12971,2.16237 -7.49579,9.87645 -12.44993,13.71694 -7.07751,5.10783 5.14435,2.28394 6.94993,-0.18569 1.93117,-1.13879 2.72402,-5.82367 4.78125,-5.0625 2.52892,3.66729 1.22395,8.73427 3.75,12.125 2.28807,1.56696 4.57573,-1.29003 7.03125,-0.3125 -1.42899,-3.34697 -2.59108,-8.93218 -0.21875,-11.78125 5.34489,4.64119 8.24188,14.91397 17.0625,14.03125 3.10396,-0.0928 8.1637,-1.325 8.57732,-4.07854 -1.30746,-4.39525 -2.57049,-4.11622 -5.54607,-1.85896 -3.79738,0.6305 -6.57917,-3.52159 -8.46875,-6.1875 -2.23585,-4.06096 -5.33165,-7.29223 -9.6341,-9.1159 -1.25681,0.76494 -4.72568,1.94114 -6.20965,3.1159 -0.82111,-2.35484 -2.77301,-4.94821 -5.625,-4.40625 z"
         id="path4298"
         inkscape:connector-curvature="0" />
      <path
         style="font-family:Ralph Walker;-inkscape-font-specification:Ralph Walker"
         d="m 165.60939,793.70947 c -3.63851,0.60907 -4.70719,1.57424 -6.5625,4.03125 -5.64293,5.89013 -4.19315,18.24009 4.71875,19.78125 4.64365,1.25571 8.50796,-1.89192 12.21875,-4.25 -0.89305,-2.04487 2.31056,-3.75293 1.6875,-6.125 0.37429,-3.7138 5.83079,-5.81011 1.35313,-8.64461 -3.74909,1.57227 -4.85548,-3.84837 -8.54063,-4.19914 -2.21008,-0.13428 -2.81041,-1.71056 -4.875,-0.59375 z m 0.65625,5.65625 c 1.18946,2.65644 4.68466,3.2426 6.46875,4.78125 0.66038,4.71506 -4.77761,9.02462 -8.53125,5.59375 0.96236,-2.16318 -0.65852,-3.60042 -1.625,-4.90625 0.0386,-2.54119 1.21204,-4.90491 3.6875,-5.46875 z"
         id="path4300"
         inkscape:connector-curvature="0" />
      <path
         style="font-family:Ralph Walker;-inkscape-font-specification:Ralph Walker"
         d="m 197.12306,787.90136 c -10.4961,0.59601 -20.895,13.19437 -14.75,23.25 6.35599,7.56914 20.07254,4.36838 24.34375,-3.875 2.04772,-3.97235 -0.49381,-4.71662 -3.46875,-2.75 -3.2256,4.81945 -11.11837,6.53382 -14.65625,1.25 -1.99682,-3.78175 1.03471,-9.19316 3.75,-10.65625 -3.99622,2.8467 -2.72844,10.22202 2.84375,9.625 6.16696,-0.49839 12.7228,-7.79873 9.09375,-13.8125 -0.61613,-1.67517 -3.55165,-2.22486 -5.53125,-3 -0.54013,-0.0612 -1.08216,-0.094 -1.625,-0.0312 z m 0.0312,10.59375 c -1.72423,0.87336 0.0429,-0.36251 0,0 z"
         id="path4302"
         inkscape:connector-curvature="0" />
      <path
         style="font-family:Ralph Walker;-inkscape-font-specification:Ralph Walker"
         d="m 216.90824,751.00312 c -7.88066,2.60415 -9.29587,12.23864 -9.50683,19.23874 1.00413,9.09632 4.62681,18.31848 4.81654,27.2056 0.44239,6.28236 -10.81635,3.89566 -5.59096,7.61816 -2.85139,2.2412 -6.23111,5.65734 -1.8965,2.86777 2.37912,-0.83152 8.3852,-2.99908 9.36525,-2.68027 0.10985,3.64339 1.15848,7.73629 5.15625,8.84375 5.85041,-3.10287 0.65254,-9.80367 4.09375,-14.0625 2.60853,-1.23379 4.09936,3.90125 5.65625,5.15625 3.64456,6.55833 12.19847,12.17957 19.4375,7.6875 3.67901,-1.93754 6.12035,-5.13877 3.98005,-9.44893 -2.00597,4.82285 -10.55683,-0.14548 -7.3863,5.13643 -2.36601,0.22893 -3.97704,-1.67535 -4.9375,-2.59375 -3.39488,-1.13663 -4.08476,-5.9623 -7.03125,-7.96875 -1.09922,-3.30313 -6.63632,-6.03358 -10.59375,-4.0625 -2.01862,1.30478 -2.97944,1.5016 -2.25,-1.3125 4.57252,-11.25394 9.0696,-24.59883 4.25,-36.4375 -1.037,-3.32656 -4.11406,-5.45379 -7.5625,-5.1875 z m 1.0625,7 c 3.62018,6.42921 2.73301,14.45962 1.34375,21.5 -1.13729,7.41973 -2.07823,3.02052 -3.03125,-2.53125 -0.79906,-5.86171 -4.02492,-13.01368 -0.9375,-18.53125 0.87158,-0.64628 1.52945,-1.52512 2.625,-0.4375 z"
         id="path4304"
         inkscape:connector-curvature="0"
         sodipodi:nodetypes="ccccccccccccccccccccccc" />
      <path
         style="font-family:Ralph Walker;-inkscape-font-specification:Ralph Walker"
         d="m 72.0625,805.04803 c -0.701115,3.7661 -7.784462,2.83396 -10.65625,1.78125 -3.024371,1.86183 -7.902704,0.88173 -9.85887,-0.88361 -3.566622,1.80001 -7.824066,2.43147 -11.98488,1.00861 -4.266826,2.18115 -10.669179,-0.47458 -13.96875,4 0.440421,3.17059 3.986873,5.38746 6.46875,3.90625 6.648112,-0.18415 13.064437,-0.20335 19.65625,-0.0625 1.604511,5.36733 5.101263,10.22949 5.3125,15.96875 2.895055,3.23593 2.907528,8.97855 4.84375,13 2.483674,6.94017 4.746179,14.35456 8.6875,20.4375 4.348215,4.35137 10.990293,-1.46313 14.356353,-4.27718 20.545637,-17.17634 -10.144919,-0.70412 -10.180237,-1.65977 -0.265878,-4.99006 -4.745661,-6.06206 -5.301116,-10.8443 -3.381348,-10.92074 -6.81789,-22.04243 -11.65625,-32.21875 6.143261,-0.62858 13.705842,1.22311 18.65625,-2.40625 4.489453,-2.78477 1.753533,-9.34997 -3.371551,-9.88409 -0.87621,-0.8051 -0.600983,1.80344 -1.003449,2.13409 z"
         id="path4306"
         inkscape:connector-curvature="0"
         sodipodi:nodetypes="ccccccccccscccccc" />
      <path
         style="font-family:Ralph Walker;-inkscape-font-specification:Ralph Walker"
         d="m 87.6875,802.92303 c -7.161964,1.86155 -8.458281,10.39578 -8.59375,16.65625 0.830009,9.85184 5.628818,19.45362 8.03125,29.1875 1.213463,6.99818 -11.305493,5.63909 -5.25,8.96875 -2.626871,2.70266 -4.664089,7.53133 -0.714854,4.28926 2.249496,-1.12135 7.201988,-4.71425 8.183604,-4.97676 0.494232,3.69374 1.772524,7.93932 6,8.71875 5.45818,-3.57749 -0.09473,-9.63188 2.65625,-14.21875 2.93764,-1.39597 4.85867,4.21231 6.9085,5.53383 4.47988,6.93502 15.11585,10.84099 21.404,4.02867 4.08542,-0.81165 1.90519,-11.69506 -1.16304,-6.29624 -4.21615,2.98348 -5.07705,0.18362 -5.55571,3.82749 -2.76131,0.11504 -2.84532,-2.32469 -5.09375,-2.3125 -4.67995,-4.48286 -7.17548,-10.76927 -13.90625,-11.78125 -2.196267,-0.13603 -5.013558,1.59879 -6.1875,2.1875 -0.283008,-6.91315 4.20431,-13.52134 3.561422,-20.71686 0.65834,-7.60484 0.07552,-17.31043 -6.436422,-22.15814 -1.237202,-0.44869 -2.493025,-1.08855 -3.84375,-0.9375 z m 0.9375,7.03125 c 4.340991,6.00702 4.097534,14.10363 3.46875,21.25 -0.545627,6.76585 -1.649923,3.27408 -3.3125,-2.3125 -1.35272,-5.79024 -5.088774,-12.4057 -2.78125,-18.3125 0.910891,-0.66094 1.312494,-1.76915 2.625,-0.625 z"
         id="path4308"
         inkscape:connector-curvature="0"
         sodipodi:nodetypes="ccccccccccccccccccccccc" />
      <path
         style="font-family:Ralph Walker;-inkscape-font-specification:Ralph Walker"
         d="m 127.875,836.14178 c -2.88164,0.62785 -5.59114,3.30121 -6.83893,4.90229 -1.7117,5.09189 -3.51795,10.76115 -1.00482,16.03521 1.69117,2.23863 -3.39268,2.46443 -2.6875,5.3125 -1.08013,4.37641 5.46346,1.92458 7.34375,-0.15625 6.43618,4.13318 14.37422,-0.12183 19.65625,-4.28125 2.37628,-0.17961 -2.1429,-10.38126 -4.5625,-3.9375 -2.61332,2.66831 -6.88757,3.60966 -10.09375,1.78125 2.37914,-5.29604 6.48244,-12.09724 3.03125,-17.8125 2.65331,-2.46698 -3.36627,-1.64675 -4.84375,-1.84375 z m -0.5,6.46875 c 0.85922,2.72078 -0.26101,6.00314 -1.375,8.34375 -0.87653,-2.67691 -0.62302,-6.67554 1.375,-8.34375 z"
         id="path4310"
         inkscape:connector-curvature="0" />
      <path
         style="font-family:Ralph Walker;-inkscape-font-specification:Ralph Walker"
         d="m 159.21875,843.42303 c -2.68217,0.15842 -5.68768,2.44121 -6.71875,3.71875 -1.9142,-1.79626 -3.62145,-4.53131 -5.84375,-2.125 -3.27385,0.93047 -4.3832,4.68642 -5.9375,7.34375 -1.95507,-0.73131 -0.98881,16.12367 2.00513,7.26894 1.81081,-1.85889 3.37294,-6.39023 4.68237,-7.11269 1.87187,3.71873 2.32719,8.83358 4.4375,12.0625 3.18952,1.73959 7.37466,-1.46412 5.5,-4.9375 -0.47135,-2.71018 -2.95332,-8.64875 1.34375,-9.1875 4.07629,3.88254 4.37255,10.17199 8.25,14.25 2.41638,-2.18935 3.74375,-4.21201 2.71875,-7.03125 0.28365,-1.68279 -0.60848,-6.00781 1.5,-6.40625 3.33805,0.97151 -3.00514,10.12443 1.9557,4.61936 5.92097,-3.20384 0.66472,5.91829 7.07555,4.09939 3.72274,3.57345 9.06905,4.11521 13.65625,2.375 2.64933,-2.00023 6.19439,-4.95828 7.54216,-8.72067 -1.72335,-0.67836 -7.47259,0.78598 -9.57341,3.68942 -1.52634,1.01024 -5.14669,0.16033 -2.40625,-1.96875 -6.36652,1.525 -8.06474,-6.88187 -12.875,-9.3125 -3.27139,-2.70371 -8.81594,-1.64511 -10.59375,2.3125 -1.32545,-2.41347 -3.70161,-5.14547 -6.71875,-4.9375 z"
         id="path4312"
         inkscape:connector-curvature="0" />
      <path
         style="font-family:Ralph Walker;-inkscape-font-specification:Ralph Walker"
         d="m 203.78125,831.32928 c -2.9659,0.92715 -6.35161,3.23047 -6.90625,5.65625 -2.42618,5.09481 -3.19327,11.43036 -0.34375,16.59375 -3.08579,0.56061 -5.52507,7.37661 -1.15625,6.21875 3.21048,0.49398 4.95269,-4.06959 7.96875,-1.125 6.61464,2.13393 11.3801,-4.00274 16.79297,-6.42949 -0.65364,-2.24261 2.98293,-9.83305 -0.0586,-4.32412 -2.60705,2.6221 -11.32336,4.90031 -14.51564,3.06611 2.35612,-5.22053 6.57066,-12.09763 3.03125,-17.71875 2.60636,-2.83675 -2.98482,-1.62916 -4.8125,-1.9375 z m -0.5,6.375 c 0.85198,2.78953 -0.27317,6.07365 -1.40625,8.4375 -0.83083,-2.75931 -0.62476,-6.3977 1.40625,-8.4375 z"
         id="path4314"
         inkscape:connector-curvature="0"
         sodipodi:nodetypes="ccccccccccccc" />
      <path
         style="font-family:Ralph Walker;-inkscape-font-specification:Ralph Walker"
         d="m 226.125,838.11053 c -6.10375,1.79927 -6.51718,9.83823 -10.93281,13.72186 -7.68516,6.14629 3.8432,3.2037 6.24531,0.21564 1.84217,-1.2459 2.17187,-6.03486 4.28125,-5.375 2.91608,3.41394 2.12958,8.62148 4.90625,11.84375 2.36142,1.33566 4.43135,-1.25793 6.78125,-1.3125 -1.58878,-3.08429 -3.04796,-8.34723 -1.125,-11.15625 5.90495,4.25488 9.48979,14.30437 18.3125,12.875 3.0946,-0.2514 8.06629,-1.89084 8.24976,-4.62831 -1.82343,-4.85824 -3.02855,-3.3564 -6.18726,-1.27794 -4.71799,-0.19905 -7.72995,-4.87159 -10.46875,-8.1875 -2.08995,-3.49299 -5.86372,-4.81893 -9.3125,-6.59375 -0.64262,2.22336 -4.23553,2.75172 -5.1875,3.875 -1.03239,-2.09264 -2.91324,-4.44718 -5.5625,-4 z"
         id="path4316"
         inkscape:connector-curvature="0" />
      <path
         style="font-size:74.85036469px;font-style:normal;font-variant:normal;font-weight:normal;font-stretch:normal;line-height:125%;letter-spacing:0px;word-spacing:0px;fill:#000000;fill-opacity:1;stroke:none;font-family:Edmunds;-inkscape-font-specification:Edmunds"
         d="m 270.00304,774.21875 c -7.90313,4.07589 -16.68493,10.85324 -15.65193,18.9165 1.69556,5.3675 10.21878,2.41801 9.85989,-2.34192 3.28236,-7.92744 15.98256,-15.56293 25.35955,-9.32478 8.15617,7.19847 1.96231,18.02704 -2.61071,25.30175 -4.00692,2.35892 -0.9324,3.76247 -4.15741,6.79073 -5.43845,9.00805 -10.34747,29.64478 -2.05627,29.40743 -2.60831,4.30242 -10.40773,16.98148 5.46107,13.67746 13.76152,-4.54771 -2.86958,-13.71961 -2.86958,-13.71961 -0.98014,-2.95078 -0.15932,-0.76862 0.61584,-4.19977 -1.22036,-6.23054 1.936,-13.35326 7.87626,-17.46947 -3.55422,-4.0043 6.3731,-11.98072 8.12816,-17.54929 3.97217,-8.19722 5.62099,-21.25315 -5.87647,-27.10891 -6.65604,-4.51052 -16.52743,-4.79356 -24.0784,-2.38012 z"
         id="text4318"
         inkscape:connector-curvature="0"
         sodipodi:nodetypes="cccccccccccccc" />
    </g>
  </g>
</svg>
