<?xml version="1.0" encoding="UTF-8" standalone="no"?>
<!-- Created with Inkscape (http://www.inkscape.org/) -->

<svg
   xmlns:dc="http://purl.org/dc/elements/1.1/"
   xmlns:cc="http://creativecommons.org/ns#"
   xmlns:rdf="http://www.w3.org/1999/02/22-rdf-syntax-ns#"
   xmlns:svg="http://www.w3.org/2000/svg"
   xmlns="http://www.w3.org/2000/svg"
   xmlns:sodipodi="http://sodipodi.sourceforge.net/DTD/sodipodi-0.dtd"
   xmlns:inkscape="http://www.inkscape.org/namespaces/inkscape"
   width="300"
   height="300"
   id="svg2"
   version="1.1"
   inkscape:version="0.48.4 r9939"
   sodipodi:docname="60_schlumpfbeeren.svg">
  <defs
     id="defs4" />
  <sodipodi:namedview
     id="base"
     pagecolor="#ffffff"
     bordercolor="#666666"
     borderopacity="1.0"
     inkscape:pageopacity="0.0"
     inkscape:pageshadow="2"
     inkscape:zoom="1"
     inkscape:cx="247.48214"
     inkscape:cy="134.50435"
     inkscape:document-units="px"
     inkscape:current-layer="g4437"
     showgrid="false"
     inkscape:window-width="1313"
     inkscape:window-height="664"
     inkscape:window-x="0"
     inkscape:window-y="0"
     inkscape:window-maximized="0"
     units="px"
     showguides="true"
     inkscape:guide-bbox="true"
     gridtolerance="10"
     guidetolerance="9">
    <sodipodi:guide
       orientation="1,0"
       position="10,143"
       id="guide3608" />
    <sodipodi:guide
       orientation="0,1"
       position="-38,280"
       id="guide3610" />
    <sodipodi:guide
       orientation="0,1"
       position="183,20"
       id="guide3612" />
    <sodipodi:guide
       orientation="1,0"
       position="280,36"
       id="guide3614" />
    <sodipodi:guide
       orientation="0,1"
       position="124,80"
       id="guide4474" />
  </sodipodi:namedview>
  <metadata
     id="metadata7">
    <rdf:RDF>
      <cc:Work
         rdf:about="">
        <dc:format>image/svg+xml</dc:format>
        <dc:type
           rdf:resource="http://purl.org/dc/dcmitype/StillImage" />
        <dc:title></dc:title>
      </cc:Work>
    </rdf:RDF>
  </metadata>
  <g
     inkscape:label="Ebene 1"
     inkscape:groupmode="layer"
     id="layer1"
     transform="translate(0,-752.3608)">
    <g
       transform="scale(0.89824283,1.1132847)"
       style="font-size:81.19001007px;font-style:normal;font-variant:normal;font-weight:normal;font-stretch:normal;line-height:125%;letter-spacing:0px;word-spacing:0px;fill:#000000;fill-opacity:1;stroke:none;font-family:Edmunds;-inkscape-font-specification:Edmunds"
       id="text4275">
      <g
         id="g4437"
         transform="translate(-282.77431,34.133228)">
        <path
           style="fill:#070707"
           d="m 310.74645,829.1263 c -1.3325,-0.39643 -2.64783,-1.29766 -2.92294,-2.00272 -0.27511,-0.70506 0.34665,-5.1917 1.3817,-9.97031 2.16511,-9.99568 3.33041,-33.42621 1.96045,-39.41801 -1.04578,-4.57399 0.15445,-7.95649 4.18977,-11.80759 6.92184,-6.60587 7.67059,-7.96608 7.64342,-13.88538 -0.0232,-5.0634 -0.34787,-6.02957 -3.93546,-11.71274 -2.15058,-3.40678 -5.05869,-8.95285 -6.46247,-12.32461 -3.23569,-7.77189 -4.89595,-9.95794 -6.65894,-8.76782 -1.69119,1.14163 -1.63263,5.58095 0.14709,11.14952 1.01679,3.18145 1.33197,6.6923 1.08885,12.12907 -0.32871,7.35074 -0.49213,7.88412 -4.15681,13.56694 -3.35722,5.20606 -9.11397,11.6622 -9.11397,10.22124 0,-0.28715 2.11659,-4.03537 4.70353,-8.32936 4.48004,-7.43633 4.71822,-8.1263 5.01291,-14.5226 0.30392,-6.59647 -1.3917,-15.40587 -4.86944,-25.29844 -2.16871,-6.16901 -1.68913,-10.63903 1.53774,-14.33282 4.14753,-4.74765 19.34134,-16.61375 28.31389,-22.11268 14.8274,-9.08712 21.48383,-10.75341 29.61261,-7.41284 7.36509,3.02669 13.57842,3.73338 31.99895,3.63944 28.89179,-0.14733 41.20845,-1.98062 56.69095,-8.43823 5.55704,-2.31779 12.00759,-4.59332 14.33454,-5.05671 2.32697,-0.4634 6.13246,-1.61357 8.45663,-2.55594 7.88148,-3.19566 13.20776,-2.32361 28.66554,4.69332 4.78597,2.17255 12.58497,5.21612 17.33114,6.7635 11.58382,3.77665 19.60731,7.51837 24.29094,11.32797 3.39992,2.76544 3.87862,3.5509 3.87862,6.364 0,4.20453 1.58399,5.34677 5.26661,3.79779 1.48917,-0.62637 4.26115,-1.13886 6.15996,-1.13886 5.36854,0 10.26748,4.82765 13.28449,13.09113 1.7675,4.84115 6.09549,9.4992 8.8261,9.4992 2.50926,0 5.876,-3.07264 5.89654,-5.38148 0.0302,-3.39485 1.54847,-3.50518 2.16567,-0.1574 0.33998,1.844 0.98728,3.35272 1.43849,3.35272 1.37018,0 3.3821,-3.10827 4.0093,-6.19411 0.90737,-4.46419 1.38664,-5.52392 2.29233,-5.06863 1.11683,0.56144 1.04965,4.53349 -0.15389,9.09817 -1.38046,5.23563 -4.95455,8.3432 -10.90368,9.48043 -8.67579,1.65845 -11.93663,4.1966 -10.02538,7.80346 0.37214,0.7023 0.95523,4.88406 1.29578,9.29282 0.48961,6.33868 1.02365,8.5496 2.55233,10.56645 3.43976,4.53819 1.64033,10.67809 -3.65197,12.46116 -4.27977,1.44191 -10.99549,1.18756 -13.88902,-0.52607 -4.09983,-2.42801 -4.30498,-2.45399 -7.69742,-0.97507 -5.1083,2.22697 -9.16024,1.89423 -12.77924,-1.04943 -2.81972,-2.29351 -3.50532,-3.88654 -3.09173,-7.18372 0.1103,-0.87964 -1.10093,-1.72099 -3.8654,-2.68484 -2.21436,-0.77206 -4.47182,-2.08112 -5.01655,-2.90904 -0.54474,-0.82793 -1.95344,-2.01854 -3.13044,-2.64582 -1.94176,-1.03486 -2.39114,-1.03486 -4.85148,0 -4.1377,1.74039 -6.25848,1.47492 -6.89827,-0.86347 -1.1262,-4.1162 -1.46379,-4.59536 -3.98439,-5.65559 -5.80455,-2.44149 -9.56835,-1.2679 -19.32143,6.02458 -9.28304,6.94106 -11.27881,10.41776 -11.2516,19.60074 0.0199,6.67699 0.57348,9.99152 2.50026,14.96687 1.07385,2.77295 1.14446,4.47064 0.37345,8.97955 -2.06381,12.06924 -0.55149,24.49678 3.65467,30.03245 1.02437,1.34818 4.64036,4.27681 8.03556,6.50809 3.3952,2.23126 6.17309,4.49172 6.17309,5.02321 0,1.30003 -7.45915,2.16515 -11.53615,1.33798 -2.55759,-0.51889 -3.3543,-1.12215 -4.03171,-3.05267 -0.46432,-1.32329 -2.75782,-3.97067 -5.09665,-5.88305 -4.76434,-3.89569 -4.43646,-2.76184 -6.13754,-21.22415 -0.49854,-5.41075 -1.5478,-11.47735 -2.33169,-13.48133 -0.78388,-2.00398 -1.96615,-7.04511 -2.62728,-11.20249 -1.44427,-9.08202 -2.69495,-10.73629 -9.89806,-13.09205 -8.64801,-2.82832 -11.1399,-0.77985 -13.2797,10.91667 -1.51417,8.27668 -3.1538,10.98154 -11.07408,18.26873 -7.42042,6.8273 -15.26456,16.79837 -17.57887,22.3454 -1.35837,3.25573 -1.59068,5.18534 -1.12953,9.38195 0.51012,4.64213 0.39861,5.28322 -0.9189,5.28322 -2.57462,0 -7.25428,-2.82038 -8.69535,-5.24059 -1.17223,-1.96874 -1.20424,-2.70675 -0.21321,-4.91433 0.64141,-1.42873 1.62167,-3.96242 2.17838,-5.63043 0.6833,-2.04729 2.98666,-4.80088 7.08861,-8.4742 8.12593,-7.27677 11.26379,-12.34358 15.08214,-24.35358 4.99515,-15.71138 3.62998,-20.76213 -6.12993,-22.67904 -3.38137,-0.66412 -6.44551,-1.97381 -9.70323,-4.14744 -6.69489,-4.46694 -10.96638,-5.18542 -23.72299,-3.99027 -12.22423,1.14526 -14.95252,0.77004 -21.30523,-2.93012 -5.39799,-3.14407 -8.5389,-3.62114 -10.69907,-1.62503 -2.45636,2.26981 -14.70329,17.21746 -16.65025,20.32199 -2.3788,3.7932 -3.99428,11.81196 -3.26629,16.21305 0.8976,5.42638 2.90678,9.85567 10.90953,24.05015 7.80188,13.83822 9.51451,19.06094 6.42124,19.5818 -3.70305,0.62352 -14.23004,-10.32801 -14.23004,-14.8039 0,-2.83342 -11.10772,-21.82206 -12.76519,-21.82206 -0.66995,0 -2.11531,3.08026 -3.59039,7.65158 -5.15932,15.98907 -5.05671,21.89626 0.46673,26.86913 6.39149,5.75441 5.13651,8.15104 -4.21636,8.05192 -2.9855,-0.0317 -6.51843,-0.38189 -7.85092,-0.77833 z m 264.12789,22.24096 c -1.29064,-1.04979 -1.28228,-1.33574 0.0945,-3.23146 1.274,-1.75421 1.32234,-2.26409 0.30875,-3.25746 -2.05698,-2.01598 -5.47225,-1.08967 -6.61887,1.79523 -1.29184,3.25024 -5.1507,4.61909 -7.51694,2.66647 -1.47624,-1.21819 -1.43082,-1.35569 0.90998,-2.756 1.35507,-0.81062 2.46377,-1.74339 2.46377,-2.07284 0,-0.32945 -1.41107,-1.97275 -3.13569,-3.65176 -1.81398,-1.76604 -3.13569,-3.84992 -3.13569,-4.94396 0,-1.04013 1.92114,11.72697 -1.07529,-6.1257 -1.39304,-8.29972 1.98617,-22.91807 8.21871,-29.71268 3.90251,-4.25446 4.36009,-6.20182 2.24063,-9.53556 -1.20017,-1.88776 -0.43804,-3.20712 0.86327,-1.49449 0.27393,0.36053 2.49515,1.04519 4.93601,1.52148 2.44084,0.47628 4.88731,1.30639 5.43656,1.84468 0.54924,0.5383 1.20573,2.88695 1.45889,5.21921 0.25313,2.33226 1.41253,6.04405 2.57645,8.24843 2.57353,4.87414 6.50363,16.95639 7.29337,22.42185 0.51679,3.57651 0.36734,4.13141 -1.40574,5.21925 -1.12223,0.68854 -2.36429,2.59395 -2.85952,4.38673 -0.48154,1.74319 -1.66619,4.07265 -2.63261,5.17657 -0.9664,1.10392 -1.75709,3.1354 -1.75709,4.5144 0,1.50352 -0.6559,2.99007 -1.63839,3.71329 -2.04761,1.50725 -3.22311,1.51996 -5.02501,0.0543 z"
           id="path4472"
           inkscape:connector-curvature="0"
           sodipodi:nodetypes="ssssssssssssssssssssssssssssssscssssssssssssscssssssscsssssssssssssssssscsssssssssssssssssscssssssssssscscsssssssscc" />
        <g
           transform="scale(1.1132847,0.89824283)"
           style="font-size:40px;font-style:normal;font-variant:normal;font-weight:normal;font-stretch:normal;line-height:125%;letter-spacing:0px;word-spacing:0px;fill:#000000;fill-opacity:1;stroke:none;font-family:Edmunds;-inkscape-font-specification:Edmunds"
           id="text4476">
          <path
             d="m 361.272,994.36078 12.8,0 0,-3.296 -8.864,0 0,-18.272 -3.936,0 0,21.568"
             style="font-size:32px;font-weight:600;font-family:Myriad Pro;-inkscape-font-specification:Myriad Pro Semi-Bold"
             id="path4481" />
          <path
             d="m 377.022,972.79278 0,21.568 3.936,0 0,-21.568 -3.936,0"
             style="font-size:32px;font-weight:600;font-family:Myriad Pro;-inkscape-font-specification:Myriad Pro Semi-Bold"
             id="path4483" />
          <path
             d="m 389.0755,994.36078 0,-7.712 c 0,-3.552 -0.064,-6.4 -0.224,-9.184 l 0.128,-0.032 c 1.056,2.432 2.464,5.056 3.84,7.424 l 5.632,9.504 4.096,0 0,-21.568 -3.648,0 0,7.52 c 0,3.296 0.064,6.08 0.352,8.96 l -0.064,0 c -0.992,-2.336 -2.272,-4.832 -3.68,-7.232 l -5.568,-9.248 -4.512,0 0,21.568 3.648,0"
             style="font-size:32px;font-weight:600;font-family:Myriad Pro;-inkscape-font-specification:Myriad Pro Semi-Bold"
             id="path4485" />
          <path
             d="m 407.0525,972.79278 0,12.352 c 0,6.78399 3.232,9.568 8.224,9.568 5.18399,0 8.608,-2.94401 8.608,-9.6 l 0,-12.32 -3.936,0 0,12.576 c 0,4.22399 -1.696,6.176 -4.544,6.176 -2.656,0 -4.416,-1.95201 -4.416,-6.176 l 0,-12.576 -3.936,0"
             style="font-size:32px;font-weight:600;font-family:Myriad Pro;-inkscape-font-specification:Myriad Pro Semi-Bold"
             id="path4487" />
          <path
             d="m 444.493,994.36078 -6.56,-11.04 6.304,-10.528 -4.512,0 -2.304,4.448 c -0.672,1.312 -1.12,2.272 -1.696,3.616 l -0.096,0 c -0.544,-1.216 -1.056,-2.272 -1.76,-3.616 l -2.336,-4.448 -4.544,0 6.176,10.656 -6.4,10.912 4.512,0 2.144,-4.288 c 0.864,-1.664 1.44,-2.816 1.952,-4.064 l 0.064,0 c 0.64,1.248 1.248,2.4 2.176,4.064 l 2.304,4.288 4.576,0"
             style="font-size:32px;font-weight:600;font-family:Myriad Pro;-inkscape-font-specification:Myriad Pro Semi-Bold"
             id="path4489" />
        </g>
      </g>
    </g>
  </g>
</svg>
