<?xml version="1.0" encoding="UTF-8" standalone="no"?>
<!-- Created with Inkscape (http://www.inkscape.org/) -->

<svg
   xmlns:dc="http://purl.org/dc/elements/1.1/"
   xmlns:cc="http://creativecommons.org/ns#"
   xmlns:rdf="http://www.w3.org/1999/02/22-rdf-syntax-ns#"
   xmlns:svg="http://www.w3.org/2000/svg"
   xmlns="http://www.w3.org/2000/svg"
   xmlns:sodipodi="http://sodipodi.sourceforge.net/DTD/sodipodi-0.dtd"
   xmlns:inkscape="http://www.inkscape.org/namespaces/inkscape"
   width="300"
   height="300"
   id="svg2"
   version="1.1"
   inkscape:version="0.48.4 r9939"
   sodipodi:docname="29_nochmaanfang.svg">
  <defs
     id="defs4" />
  <sodipodi:namedview
     id="base"
     pagecolor="#ffffff"
     bordercolor="#666666"
     borderopacity="1.0"
     inkscape:pageopacity="0.0"
     inkscape:pageshadow="2"
     inkscape:zoom="1"
     inkscape:cx="243.5"
     inkscape:cy="141.50493"
     inkscape:document-units="px"
     inkscape:current-layer="layer1"
     showgrid="false"
     inkscape:window-width="1313"
     inkscape:window-height="664"
     inkscape:window-x="0"
     inkscape:window-y="0"
     inkscape:window-maximized="0"
     units="px"
     showguides="true"
     inkscape:guide-bbox="true"
     gridtolerance="10"
     guidetolerance="9">
    <sodipodi:guide
       orientation="1,0"
       position="10,143"
       id="guide3608" />
    <sodipodi:guide
       orientation="0,1"
       position="55,291"
       id="guide3610" />
    <sodipodi:guide
       orientation="0,1"
       position="183,20"
       id="guide3612" />
    <sodipodi:guide
       orientation="1,0"
       position="280,36"
       id="guide3614" />
  </sodipodi:namedview>
  <metadata
     id="metadata7">
    <rdf:RDF>
      <cc:Work
         rdf:about="">
        <dc:format>image/svg+xml</dc:format>
        <dc:type
           rdf:resource="http://purl.org/dc/dcmitype/StillImage" />
        <dc:title></dc:title>
      </cc:Work>
    </rdf:RDF>
  </metadata>
  <g
     inkscape:label="Ebene 1"
     inkscape:groupmode="layer"
     id="layer1"
     transform="translate(0,-752.3608)">
    <path
       style="fill:#ffffff;stroke:#000000;stroke-width:1px;stroke-linecap:butt;stroke-linejoin:miter;stroke-opacity:1"
       d="m 27,26 61,-9 111,1 76,6 7,14 2,133 -10,43 -131,12 -75,3 5,39 -15,-15 -7,-24 -29,-6 -8,-43 1,-111 2,-31 z"
       id="path3303"
       inkscape:connector-curvature="0"
       transform="translate(0,752.3608)" />
    <g
       id="g3042"
       transform="matrix(0.13186783,0,0,0.13186783,-13.635232,757.98824)"
       style="fill:#000000">
      <path
         style="fill:#000000"
         d="m 390.80735,1040.6133 c 6.76904,-0.1732 17.56904,-0.1727 24,10e-4 6.43096,0.1741 0.89265,0.3159 -12.30735,0.3152 -13.2,-6e-4 -18.46169,-0.1429 -11.69265,-0.3162 z m 199.94265,0.085 c 0.6875,-0.2774 1.8125,-0.2774 2.5,0 0.6875,0.2774 0.125,0.5044 -1.25,0.5044 -1.375,0 -1.9375,-0.227 -1.25,-0.5044 z m 147.49668,-0.026 c 1.65076,-0.4316 1.76078,-8.5124 2.00335,-147.134 l 0.25666,-146.67732 0.24666,147.25 L 741,1041.361 l -2.25,-0.116 c -1.68797,-0.087 -1.81369,-0.2301 -0.50332,-0.5727 z m -358.58001,-1.978 C 379.3,1038.3275 379,973.54328 379,894.7293 c 0,-143.135 0.002,-143.29939 2.03668,-144.38815 1.34278,-0.71863 9.36224,-0.98615 23.53794,-0.78519 17.79199,0.25224 21.66458,0.56359 22.44801,1.80482 0.56758,0.89926 0.95288,25.14909 0.96206,60.55 0.0157,60.50533 0.0737,61.45 3.77395,61.45 1.36354,0 6.16791,-3.45909 13.87998,-9.99341 2.27624,-1.92862 6.30739,-5.08159 8.95811,-7.00659 2.65072,-1.925 8.0932,-6.2 12.09441,-9.5 4.00122,-3.3 9.42007,-7.67526 12.0419,-9.72281 2.62183,-2.04754 8.86456,-6.99754 13.87275,-11 5.00818,-4.00245 10.60806,-8.40219 12.44418,-9.77719 1.83612,-1.375 11.25113,-8.8 20.92225,-16.5 9.67113,-7.7 21.04787,-16.7 25.28166,-20 4.23379,-3.3 10.97117,-8.58963 14.97196,-11.75473 4.00079,-3.1651 9.69329,-7.6651 12.65,-10 12.15965,-9.60241 14.14521,-10.44297 16.08898,-6.81101 0.67466,1.26061 1.03518,19.6493 1.03518,52.8 0,52.4913 0.0629,53.33918 3.95,53.21704 0.8525,-0.0268 5.15,-2.96517 9.55,-6.52973 4.4,-3.56456 12.5,-9.94377 18,-14.17603 5.5,-4.23226 12.7,-9.95639 16,-12.72028 6.47369,-5.422 10.35892,-8.51759 19.48553,-15.52526 3.22338,-2.475 10.66618,-8.325 16.53957,-13 5.87338,-4.675 12.16835,-9.625 13.98882,-11 4.53625,-3.42623 17.36154,-13.58371 31.86633,-25.23777 6.66586,-5.35577 12.45725,-9.74327 12.86975,-9.75 0.4125,-0.007 0.75,65.23777 0.75,144.98777 0,93.93313 -0.34481,145.00002 -0.97907,145.00002 -0.53848,0 -4.53727,-2.8125 -8.88619,-6.25 -4.34892,-3.4375 -14.90034,-11.7871 -23.44761,-18.5547 -8.54726,-6.7675 -17.12891,-13.5175 -19.07031,-14.99996 -6.30706,-4.81604 -20.90005,-16.38799 -30.42916,-24.12973 C 645.29991,966.58088 642.4635,964.33484 629.88363,954.59734 624.72264,950.60244 618.025,945.32788 615,942.87609 604.93421,934.71768 601.00087,932.22097 598.72374,932.54467 l -2.22374,0.31611 -0.52213,53 c -0.28718,29.15002 -0.62468,53.11252 -0.75,53.25002 -0.12533,0.1375 -1.53529,0.25 -3.13326,0.25 -1.79541,0 -4.42474,-1.2416 -6.88236,-3.25 -2.18733,-1.7875 -6.32974,-5.05 -9.20535,-7.25 -2.87561,-2.2 -12.71605,-9.9364 -21.86764,-17.1919 C 533.3104,995.15533 529.59888,992.22559 524,987.87805 c -2.475,-1.92184 -10.28917,-8.11193 -17.36482,-13.75576 -7.07565,-5.64383 -14.96527,-11.83651 -17.53248,-13.76151 -2.56721,-1.925 -10.19648,-8 -16.95394,-13.5 -6.75745,-5.5 -14.19214,-11.35 -16.52153,-13 -2.32938,-1.65 -8.12162,-6.2625 -12.87164,-10.25 -8.55197,-7.17912 -11.23085,-8.37474 -13.55559,-6.05 -0.90608,0.90608 -1.2,15.58183 -1.2,59.91821 0,32.29501 -0.27315,59.43001 -0.60699,60.30001 -0.52938,1.3796 -3.57643,1.5818 -23.83333,1.5818 -12.77449,0 -23.52635,-0.3 -23.89301,-0.6667 z m -2.18016,-143.83332 c -3e-5,-78.65 0.11849,-110.97272 0.26336,-71.82826 0.14488,39.14446 0.1449,103.49446 5e-5,143 -0.14485,39.50558 -0.26339,7.47826 -0.26341,-71.17174 z"
         id="path3044"
         inkscape:connector-curvature="0" />
    </g>
    <path
       style="fill:#000000"
       d="m 81.224616,1038.4458 c -21.46615,-22.3999 -25.667387,-18.2632 -30.80341,-47.54166 -0.502294,-2.8634 -1.241298,-5.20612 -1.64223,-5.20612 -33.427039,0 -32.902784,0.64167 -36.232878,-44.34854 C 6.6856696,862.174 10.731255,779.76998 22.512429,773.4707 51.995645,757.70633 245.58862,757.38735 278.22964,773.04937 c 17.9814,8.62794 14.62417,196.46836 -3.65898,202.56626 -5.71139,1.90491 -56.77084,4.97261 -142.10756,8.53782 -63.320087,2.64549 -57.362293,1.80806 -57.628057,8.10045 -0.642008,15.2006 -1.101211,14.4712 11.878213,42.836 7.707691,16.8441 7.53712,16.9484 -5.48864,3.3559 z m -14.010101,-33.5553 c -6.574962,-21.1814 -2.491717,-26.75707 1.069925,-29.8551 0.592688,-0.51552 10.872213,-1.13539 27.412191,-1.65289 116.076719,-3.63188 172.333459,-6.72249 176.734519,-9.70935 9.33589,-6.33597 13.18934,-160.93179 4.56555,-178.72954 -3.97136,-8.19609 -35.67829,-11.65949 -106.63486,-11.64788 -91.906666,0.0151 -140.623795,5.31026 -145.600572,15.82585 -8.336406,17.61425 -8.135072,174.34966 0.241367,183.12881 3.066362,3.21384 16.434382,4.55955 27.069602,2.72503 4.355176,-0.75118 4.64015,-0.40282 5.300631,6.48057 2.061414,21.4836 2.086781,19.7858 10.276448,31.2027 2.852055,3.9759 2.773163,2.5664 -0.434801,-7.7682 z"
       id="path3004"
       inkscape:connector-curvature="0"
       sodipodi:nodetypes="sssssssssssssssssssssss" />
    <g
       style="font-size:40px;font-style:normal;font-variant:normal;font-weight:normal;font-stretch:normal;line-height:125%;letter-spacing:0px;word-spacing:0px;fill:#000000;fill-opacity:1;stroke:none;font-family:Edmunds;-inkscape-font-specification:Edmunds"
       id="text3023">
      <path
         d="m 35.65,825.09078 4.95,0 c 0.433326,0.96668 1.016659,1.76668 1.75,2.4 0.766658,0.60001 1.59999,1.05001 2.5,1.35 0.899988,0.26668 1.833321,0.40001 2.8,0.4 0.999985,10e-6 1.949984,-0.11666 2.85,-0.35 1.266649,-0.36666 2.283315,-1.09999 3.05,-2.2 0.733313,-1.13332 0.733313,-2.51665 0,-4.15 -0.766685,-1.66665 -2.93335,-2.76665 -6.5,-3.3 -3.633343,-0.59998 -6.416673,-1.68331 -8.35,-3.25 -1.900003,-1.56664 -2.933335,-3.76664 -3.1,-6.6 -0.133335,-2.8333 0.566665,-5.24997 2.1,-7.25 1.566661,-2.06663 4.349992,-3.36663 8.35,-3.9 4.033317,-0.59996 7.383314,0.23337 10.05,2.5 l 0,-2.25 4.95,0 0,13.45 -4.95,0 c -0.733355,-1.53331 -1.550021,-2.56664 -2.45,-3.1 -0.900019,-0.5333 -2.000018,-0.86664 -3.3,-1 -0.633349,-0.0666 -1.300015,-0.0833 -2,-0.05 -0.66668,0.0334 -1.36668,0.1167 -2.1,0.25 -1.466677,0.2667 -2.433343,0.98336 -2.9,2.15 -0.466676,1.16669 -0.283342,2.11669 0.55,2.85 0.833323,0.76669 2.93332,1.46669 6.3,2.1 3.333314,0.60002 5.883311,1.60002 7.65,3 1.766641,1.43335 2.949973,3.50002 3.55,6.2 0.633305,2.70001 0.383306,5.21667 -0.75,7.55 -1.100026,2.36667 -2.750024,4.06667 -4.95,5.1 -2.20002,1.06667 -4.016684,1.66667 -5.45,1.8 -1.400015,0.2 -3.000013,0.2 -4.8,0 -1.766676,-0.13333 -3.383341,-0.91667 -4.85,-2.35 l 0,2.1 -4.95,0 0,-13.45"
         style="font-size:50px"
         id="path3463" />
      <path
         d="m 69.139844,825.99078 c -6e-6,1.50001 0.549994,2.76668 1.65,3.8 1.099991,1.00001 2.49999,1.50001 4.2,1.5 0.833321,10e-6 1.599987,-0.13333 2.3,-0.4 0.733319,-0.26666 1.366651,-0.63333 1.9,-1.1 0.56665,-0.49999 0.999983,-1.06666 1.3,-1.7 0.333316,-0.63332 0.499982,-1.33332 0.5,-2.1 -1.8e-5,-0.73332 -0.166684,-1.41665 -0.5,-2.05 -0.300017,-0.66665 -0.73335,-1.24999 -1.3,-1.75 -0.533349,-0.49998 -1.166681,-0.88332 -1.9,-1.15 -0.700013,-0.29998 -1.466679,-0.44998 -2.3,-0.45 -0.866677,2e-5 -1.65001,0.15002 -2.35,0.45 -0.700009,0.26668 -1.316675,0.65002 -1.85,1.15 -0.53334,0.50001 -0.950006,1.08335 -1.25,1.75 -0.266673,0.63335 -0.400006,1.31668 -0.4,2.05 m -4.3,0 c -10e-7,-1.76665 0.266665,-3.43332 0.8,-5 0.533331,-1.56665 1.266663,-2.93331 2.2,-4.1 0.933328,-1.16664 2.01666,-2.08331 3.25,-2.75 1.266658,-0.69998 2.59999,-1.04998 4,-1.05 1.399987,2e-5 2.716652,0.35002 3.95,1.05 1.26665,0.66669 2.366649,1.58336 3.3,2.75 0.933313,1.16669 1.666646,2.53335 2.2,4.1 0.533312,1.56668 0.799978,3.23335 0.8,5 -2.2e-5,1.80001 -0.266688,3.48334 -0.8,5.05 -0.533354,1.53334 -1.266687,2.88334 -2.2,4.05 -0.933351,1.13333 -2.03335,2.03333 -3.3,2.7 -1.233348,0.66667 -2.550013,1 -3.95,1 -1.40001,0 -2.733342,-0.33333 -4,-1 -1.23334,-0.66667 -2.316672,-1.56667 -3.25,-2.7 -0.933337,-1.16666 -1.666669,-2.51666 -2.2,-4.05 -0.533335,-1.56666 -0.800001,-3.24999 -0.8,-5.05"
         style="font-size:50px"
         id="path3465" />
      <path
         d="m 96.886719,828.39078 2.9,0 0,10.15 -11.35,0 0,-10.15 3.5,0 0,-19.95 -3.5,0 0,-9.95 8.45,0 0,29.9"
         style="font-size:50px"
         id="path3467" />
      <path
         d="m 111.14453,828.39078 2.9,0 0,10.15 -11.35,0 0,-10.15 3.5,0 0,-19.95 -3.5,0 0,-9.95 8.45,0 0,29.9"
         style="font-size:50px"
         id="path3469" />
      <path
         d="m 116.40234,796.44078 7.95,0 -2.75,17.4 -2.65,0 -2.55,-17.4"
         style="font-size:50px"
         id="path3471" />
      <path
         d="m 140.75156,828.39078 3,0 -0.05,-2.5 c -0.0334,-2.06665 -0.33335,-3.59998 -0.9,-4.6 -0.53335,-1.03332 -1.21668,-1.59998 -2.05,-1.7 -0.80001,-0.1 -1.71668,0.25002 -2.75,1.05 -1.00001,0.76668 -1.98334,1.90002 -2.95,3.4 l 0,4.35 2.9,0 0,10.15 -11.35,0 0,-10.15 3.5,0 0,-4.9 -3.5,0 0,-9.95 8.45,0 0,4.35 c 1.69999,-2.19998 3.38332,-3.56664 5.05,-4.1 1.66665,-0.53331 3.14998,-0.36664 4.45,0.5 1.33332,0.86669 2.41665,2.40002 3.25,4.6 0.83331,2.16668 1.24998,4.90001 1.25,8.2 -2e-5,0.26668 -0.0167,0.50001 -0.05,0.7 -2e-5,0.20001 -2e-5,0.40001 0,0.6 l 3.2,0 0,10.15 -11.45,0 0,-10.15"
         style="font-size:50px"
         id="path3473" />
      <path
         d="m 193.27109,823.49078 -1.5,0 0,-9.95 10.45,0 0,9.95 -4.5,0 -4.4,15.05 -6.65,0 -3,-12.65 -2.45,12.65 -6.65,0 -4.5,-15.05 -4.5,0 0,-9.95 11.65,0 0,9.95 -1.7,0 3,10.35 2.65,-10.35 0.45,-2 5.5,0 3.5,12.35 2.65,-10.35"
         style="letter-spacing:2.05999994px"
         id="path3475" />
      <path
         d="m 210.19359,798.49078 4.95,0 0,9.95 -4.95,0 0,-9.95 m 7.9,29.9 0,10.15 -11.35,0 0,-10.15 3.5,0 -0.05,-4.9 -3.5,0 0,-9.95 8.45,0 0.05,14.85 2.9,0"
         style="font-size:50px"
         id="path3477" />
      <path
         d="m 224.51312,823.49078 -3.5,0 0,-9.95 8.4,0 0,3.8 c 1.36666,-2.19998 3.18332,-3.46664 5.45,-3.8 2.29998,-0.33331 4.06665,0.11669 5.3,1.35 1.26665,1.23335 2.03331,2.58335 2.3,4.05 0.26665,1.46668 0.05,2.96668 -0.65,4.5 -0.66669,1.53335 -2.03335,2.26668 -4.1,2.2 -2.10001,-0.0666 -3.36668,-1.06665 -3.8,-3 -0.46668,-1.96665 0.29999,-3.39998 2.3,-4.3 -0.86668,-0.99998 -2.08335,-1.01665 -3.65,-0.05 -1.56668,0.96669 -2.60001,2.88335 -3.1,5.75 l 0,4.35 2.9,0 0,10.15 -11.35,0 0,-10.15 3.5,0 0,-4.9"
         style="font-size:50px"
         id="path3479" />
      <path
         d="m 118.29063,879.96078 3,0 -0.05,-2.5 c -0.0334,-2.06665 -0.33335,-3.59998 -0.89999,-4.6 -0.53335,-1.03332 -1.21669,-1.59998 -2.05,-1.7 -0.80002,-0.1 -1.71669,0.25002 -2.75,1.05 -1.00002,0.76668 -1.98335,1.90001 -2.95,3.4 l 0,4.35 2.89999,0 0,10.15 -11.34999,0 0,-10.15 3.5,0 0,-4.9 -3.5,0 0,-9.95 8.45,0 0,4.35 c 1.69998,-2.19998 3.38332,-3.56664 5.05,-4.1 1.66665,-0.53331 3.14998,-0.36664 4.45,0.5 1.33331,0.86669 2.41664,2.40002 3.25,4.6 0.83331,2.16668 1.24997,4.90001 1.25,8.2 -3e-5,0.26668 -0.0167,0.50001 -0.05,0.7 -3e-5,0.20001 -3e-5,0.40001 0,0.6 l 3.19999,0 0,10.15 -11.44999,0 0,-10.15"
         style="font-size:50px"
         id="path3481" />
      <path
         d="m 135.93672,877.56078 c -1e-5,1.50001 0.54999,2.76668 1.65,3.8 1.09999,1.00001 2.49999,1.50001 4.2,1.5 0.83332,10e-6 1.59999,-0.13333 2.3,-0.4 0.73332,-0.26666 1.36665,-0.63333 1.9,-1.1 0.56665,-0.49999 0.99998,-1.06666 1.3,-1.7 0.33331,-0.63332 0.49998,-1.33332 0.5,-2.1 -2e-5,-0.73332 -0.16669,-1.41665 -0.5,-2.05 -0.30002,-0.66665 -0.73335,-1.24999 -1.3,-1.75 -0.53335,-0.49998 -1.16668,-0.88332 -1.9,-1.15 -0.70001,-0.29998 -1.46668,-0.44998 -2.3,-0.45 -0.86668,2e-5 -1.65001,0.15002 -2.35,0.45 -0.70001,0.26668 -1.31668,0.65002 -1.85,1.15 -0.53334,0.50001 -0.95001,1.08335 -1.25,1.75 -0.26667,0.63335 -0.40001,1.31668 -0.4,2.05 m -4.3,0 c 0,-1.76665 0.26666,-3.43332 0.8,-5 0.53333,-1.56665 1.26666,-2.93331 2.2,-4.1 0.93333,-1.16665 2.01666,-2.08331 3.25,-2.75 1.26666,-0.69998 2.59999,-1.04998 4,-1.05 1.39999,2e-5 2.71665,0.35002 3.95,1.05 1.26665,0.66669 2.36665,1.58335 3.3,2.75 0.93331,1.16669 1.66664,2.53335 2.2,4.1 0.53331,1.56668 0.79998,3.23335 0.8,5 -2e-5,1.80001 -0.26669,3.48334 -0.8,5.05 -0.53336,1.53334 -1.26669,2.88334 -2.2,4.05 -0.93335,1.13333 -2.03335,2.03333 -3.3,2.7 -1.23335,0.66667 -2.55001,1 -3.95,1 -1.40001,0 -2.73334,-0.33333 -4,-1 -1.23334,-0.66667 -2.31667,-1.56667 -3.25,-2.7 -0.93334,-1.16666 -1.66667,-2.51666 -2.2,-4.05 -0.53334,-1.56666 -0.8,-3.24999 -0.8,-5.05"
         style="font-size:50px"
         id="path3483" />
      <path
         d="m 174.73359,881.26078 c -0.0667,0.26667 -0.18335,0.63334 -0.35,1.1 -0.16668,0.43334 -0.38335,0.98334 -0.65,1.65 -0.53335,1.33334 -1.61668,2.73334 -3.25,4.2 -1.53335,1.43333 -3.38334,2.15 -5.55,2.15 -1.40001,0 -2.73334,-0.33333 -4,-1 -1.23334,-0.66667 -2.31667,-1.56667 -3.25,-2.7 -0.93333,-1.16666 -1.66667,-2.51666 -2.2,-4.05 -0.53333,-1.56666 -0.8,-3.23332 -0.8,-5 0,-1.33332 0.15,-2.61665 0.45,-3.85 0.33334,-1.23332 0.76667,-2.34998 1.3,-3.35 0.56667,-1.03331 1.23333,-1.94998 2,-2.75 0.76666,-0.79998 1.6,-1.44998 2.5,-1.95 0.96666,-0.53331 1.89999,-0.86664 2.8,-1 0.89999,-0.13331 1.74999,-0.13331 2.55,0 0.83332,0.10002 1.59999,0.33336 2.3,0.7 0.69999,0.33336 1.33332,0.71669 1.9,1.15 1.26665,1.03335 2.21665,2.15002 2.85,3.35 0.63332,1.20002 0.98332,2.25002 1.05,3.15 0.0667,0.93335 -0.13335,1.81668 -0.6,2.65 -0.46668,0.83335 -1.16668,1.40001 -2.1,1.7 -0.50001,0.20001 -1.00001,0.30001 -1.5,0.3 -0.46668,-0.0333 -0.91668,-0.14999 -1.35,-0.35 -0.43334,-0.19999 -0.81668,-0.44999 -1.15,-0.75 -0.30001,-0.29999 -0.55001,-0.63332 -0.75,-1 -0.36668,-0.69999 -0.50001,-1.51665 -0.4,-2.45 0.1,-0.93332 0.54999,-1.69998 1.35,-2.3 -1.06668,-0.56665 -2.06668,-0.84998 -3,-0.85 -0.93334,-0.0333 -1.76667,0.15002 -2.5,0.55 -0.73334,0.36668 -1.36667,0.88335 -1.9,1.55 -0.5,0.63335 -0.86667,1.31668 -1.1,2.05 -0.36667,1.06668 -0.46667,2.35001 -0.3,3.85 0.13333,1.43334 0.7,2.61667 1.7,3.55 1.03333,0.86667 2.16666,1.30001 3.4,1.3 1.26666,10e-6 2.24999,-0.13333 2.95,-0.4 0.73332,-0.29999 1.46666,-0.69999 2.2,-1.2 l 5.4,0"
         style="font-size:50px"
         id="path3485" />
      <path
         d="m 192.43047,879.96078 3,0 -0.05,-2.5 c -0.0334,-2.06665 -0.33335,-3.59998 -0.9,-4.6 -0.53335,-0.99998 -1.21668,-1.51665 -2.05,-1.55 -0.83335,-0.0666 -1.75002,0.30002 -2.75,1.1 -1.00001,0.80002 -1.98335,1.95001 -2.95,3.45 l 0,4.1 2.9,0 0,10.15 -11.35,0 0,-10.15 3.5,0 0,-19.95 -3.5,0 0,-9.95 8.45,0 0,19.25 c 1.69999,-2.19998 3.38332,-3.56664 5.05,-4.1 1.66665,-0.53331 3.14998,-0.34998 4.45,0.55 1.33331,0.90002 2.41664,2.45002 3.25,4.65 0.83331,2.20002 1.24997,4.95001 1.25,8.25 -3e-5,0.26668 -0.0167,0.50001 -0.05,0.7 -3e-5,0.20001 -3e-5,0.40001 0,0.6 l 3.2,0 0,10.15 -11.45,0 0,-10.15"
         style="letter-spacing:1.24000001px"
         id="path3487" />
      <path
         d="m 231.90251,879.96078 2,0 -0.05,-2.5 c -0.0667,-4.06665 -0.7167,-6.16665 -1.95,-6.3 -1.20003,-0.13332 -2.83336,1.40002 -4.9,4.6 l 0,4.2 2.2,0 0,10.15 -9.45,0 0,-10.15 1.95,0 0,-2.5 c -0.0333,-2.06665 -0.21669,-3.59998 -0.55,-4.6 -0.33335,-1.03332 -0.80002,-1.59998 -1.4,-1.7 -0.56668,-0.1 -1.25002,0.25002 -2.05,1.05 -0.80002,0.76668 -1.68335,1.90001 -2.65,3.4 l 0,4.35 1.9,0 0,10.15 -10.35,0 0,-10.15 3.5,0 0,-4.9 -3.5,0 0,-9.95 8.45,0 0,4.35 c 1.23332,-1.63331 2.41665,-2.79998 3.55,-3.5 1.13331,-0.73331 2.16665,-1.03331 3.1,-0.9 0.96665,0.13336 1.81664,0.66669 2.55,1.6 0.76664,0.90002 1.38331,2.13335 1.85,3.7 1.66664,-2.39998 3.31664,-3.99998 4.95,-4.8 1.6333,-0.79998 3.06663,-0.81664 4.3,-0.05 1.26663,0.73336 2.24996,2.21669 2.95,4.45 0.7333,2.20002 1.0333,5.10001 0.9,8.7 l -0.05,1.3 3.2,0 0,10.15 -10.45,0 0,-10.15"
         style="font-size:50px"
         id="path3489" />
      <path
         d="m 256.99782,874.91078 c -0.43335,0.63335 -0.90001,1.18335 -1.4,1.65 -0.46668,0.43335 -0.98335,0.81668 -1.55,1.15 -1.13335,0.66668 -1.91668,1.36668 -2.35,2.1 -0.43334,0.73334 -0.36668,1.51667 0.2,2.35 0.56666,0.83334 1.44999,1.06667 2.65,0.7 1.16665,-0.33333 1.98332,-1.61666 2.45,-3.85 l 0,-4.1 m 9.15,15.2 -4.25,0 c -1.66669,0 -2.85002,-0.65 -3.55,-1.95 -1.33335,1.06667 -2.80001,1.75 -4.4,2.05 -1.60001,0.33333 -3.15001,0.4 -4.65,0.2 -1.46667,-0.2 -2.61667,-0.9 -3.45,-2.1 -0.86667,-1.2 -1.26667,-2.48333 -1.2,-3.85 0.0667,-1.46666 0.3,-2.56666 0.7,-3.3 0.7,-1.19999 1.68333,-2.14999 2.95,-2.85 1.29999,-0.73332 2.66666,-1.34999 4.1,-1.85 0.96665,-0.33332 1.86665,-0.89999 2.7,-1.7 0.86665,-0.79999 1.44998,-1.71665 1.75,-2.75 -0.16668,-1.13332 -0.76668,-2.06665 -1.8,-2.8 -1.06668,-0.76665 -2.41668,-0.94998 -4.05,-0.55 -1.66667,0.40002 -2.61667,1.06669 -2.85,2 1.16666,-0.46665 2.18332,-0.28331 3.05,0.55 0.89999,0.76668 1.11666,1.78335 0.65,3.05 -0.40001,1.26668 -1.25001,2.01668 -2.55,2.25 -0.93334,0.13335 -1.71667,-0.0166 -2.35,-0.45 -0.63334,-0.43332 -1.11667,-1.01665 -1.45,-1.75 -0.3,-0.76665 -0.45,-1.59998 -0.45,-2.5 0.0333,-0.89998 0.23333,-1.74998 0.6,-2.55 0.56666,-1.16665 1.49999,-2.16664 2.8,-3 1.36666,-0.86664 2.68332,-1.34998 3.95,-1.45 0.66665,-0.0666 1.34999,-0.0666 2.05,0 0.73332,0.0667 1.49999,0.18336 2.3,0.35 1.59998,0.33336 2.74998,0.93336 3.45,1.8 0.69998,0.86669 1.16665,1.80002 1.4,2.8 0.13331,0.46669 0.21665,1.03335 0.25,1.7 0.0666,0.66668 0.11665,1.41668 0.15,2.25 l -0.05,3.95 c -2e-5,1.53334 0.69998,2.30001 2.1,2.3 l 2.1,0 0,10.15"
         style="letter-spacing:-4.71000004px"
         id="path3491" />
      <path
         d="m 263.71359,848.01078 7.95,0 -2.75,17.4 -2.65,0 -2.55,-17.4"
         style="font-size:50px"
         id="path3493" />
      <path
         d="m 51.25,917.55078 -1.75,0 -2.85,11.1 7.45,0 -2.85,-11.1 m -12.55,11.1 3.5,0 2.8,-11.1 -5.2,0 0,-10 14.4,0 7.7,30.1 4.5,0 0,9.95 -13.4,0 0,-9.95 3.45,0 -0.95,-3.7 -10.2,0 -0.95,3.7 3.5,0 0,9.95 -12.45,0 0,-9.95 4.5,0 0.95,-3.7 -2.15,0 0,-5.3"
         style="letter-spacing:1.84000003px;word-spacing:0px"
         id="path3495" />
      <path
         d="m 84.193125,937.45078 3,0 -0.05,-2.5 c -0.03335,-2.06665 -0.333351,-3.59999 -0.9,-4.6 -0.53335,-1.03332 -1.216682,-1.59998 -2.05,-1.7 -0.800014,-0.1 -1.71668,0.25002 -2.75,1.05 -1.000011,0.76668 -1.983344,1.90001 -2.95,3.4 l 0,4.35 2.9,0 0,10.15 -11.35,0 0,-10.15 3.5,0 0,-4.9 -3.5,0 0,-9.95 8.45,0 0,4.35 c 1.699989,-2.19998 3.383321,-3.56664 5.05,-4.1 1.666651,-0.53331 3.149983,-0.36664 4.45,0.5 1.333313,0.86669 2.416645,2.40002 3.25,4.6 0.83331,2.16668 1.249977,4.90001 1.25,8.2 -2.3e-5,0.26668 -0.01669,0.50001 -0.05,0.7 -2.3e-5,0.20001 -2.3e-5,0.40001 0,0.6 l 3.2,0 0,10.15 -11.45,0 0,-10.15"
         style="letter-spacing:1.84000003px;word-spacing:0px"
         id="path3497" />
      <path
         d="m 110.62922,922.60078 0,9.95 -3.5,0 0.1,4.9 3.5,0 0,10.15 -11.450001,0 0,-10.15 3.000001,0 -0.1,-4.9 -3.000001,0 0,-9.95 3.000001,0 0,-2.45 c 0,-4.26664 0.73333,-7.4833 2.2,-9.65 1.53332,-2.16663 3.23332,-3.23329 5.1,-3.2 1.89999,4e-5 3.38332,0.65004 4.45,1.95 l 0,9.8 c -1.16668,-2.16664 -2.60001,-3.01664 -4.3,-2.55 -1.66668,0.4667 -2.50001,1.68336 -2.5,3.65 l 0,2.45 3.5,0"
         style="letter-spacing:1.84000003px;word-spacing:0px"
         id="path3499" />
      <path
         d="m 127.53757,932.40078 c -0.43334,0.63335 -0.90001,1.18335 -1.4,1.65 -0.46667,0.43335 -0.98334,0.81668 -1.55,1.15 -1.13334,0.66668 -1.91667,1.36668 -2.35,2.1 -0.43334,0.73334 -0.36667,1.51667 0.2,2.35 0.56666,0.83334 1.44999,1.06667 2.65,0.7 1.16666,-0.33333 1.98332,-1.61666 2.45,-3.85 l 0,-4.1 m 9.15,15.2 -4.25,0 c -1.66668,0 -2.85001,-0.65 -3.55,-1.95 -1.33334,1.06667 -2.80001,1.75 -4.4,2.05 -1.6,0.33333 -3.15,0.4 -4.65,0.2 -1.46667,-0.2 -2.61667,-0.9 -3.45,-2.1 -0.86666,-1.2 -1.26666,-2.48333 -1.2,-3.85 0.0667,-1.46666 0.3,-2.56666 0.7,-3.3 0.7,-1.19999 1.68333,-2.14999 2.95,-2.85 1.3,-0.73332 2.66666,-1.34999 4.1,-1.85 0.96666,-0.33332 1.86666,-0.89999 2.7,-1.7 0.86666,-0.79999 1.44999,-1.71665 1.75,-2.75 -0.16668,-1.13332 -0.76667,-2.06665 -1.8,-2.8 -1.06667,-0.76665 -2.41667,-0.94998 -4.05,-0.55 -1.66667,0.40002 -2.61667,1.06669 -2.85,2 1.16667,-0.46665 2.18333,-0.28332 3.05,0.55 0.9,0.76668 1.11666,1.78335 0.65,3.05 -0.4,1.26668 -1.25,2.01668 -2.55,2.25 -0.93333,0.13335 -1.71667,-0.0166 -2.35,-0.45 -0.63333,-0.43332 -1.11666,-1.01665 -1.45,-1.75 -0.3,-0.76665 -0.45,-1.59998 -0.45,-2.5 0.0333,-0.89998 0.23334,-1.74998 0.6,-2.55 0.56667,-1.16665 1.5,-2.16665 2.8,-3 1.36666,-0.86664 2.68333,-1.34998 3.95,-1.45 0.66666,-0.0666 1.34999,-0.0666 2.05,0 0.73333,0.0667 1.49999,0.18336 2.3,0.35 1.59999,0.33336 2.74999,0.93336 3.45,1.8 0.69999,0.86669 1.16665,1.80002 1.4,2.8 0.13332,0.46669 0.21665,1.03335 0.25,1.7 0.0666,0.66668 0.11665,1.41668 0.15,2.25 l -0.05,3.95 c -1e-5,1.53334 0.69999,2.30001 2.1,2.3 l 2.1,0 0,10.15"
         style="letter-spacing:1.84000003px;word-spacing:0px"
         id="path3501" />
      <path
         d="m 154.75219,937.45078 3,0 -0.05,-2.5 c -0.0334,-2.06665 -0.33335,-3.59999 -0.9,-4.6 -0.53335,-1.03332 -1.21668,-1.59998 -2.05,-1.7 -0.80002,-0.1 -1.71668,0.25002 -2.75,1.05 -1.00001,0.76668 -1.98335,1.90001 -2.95,3.4 l 0,4.35 2.9,0 0,10.15 -11.35,0 0,-10.15 3.5,0 0,-4.9 -3.5,0 0,-9.95 8.45,0 0,4.35 c 1.69999,-2.19998 3.38332,-3.56664 5.05,-4.1 1.66665,-0.53331 3.14998,-0.36664 4.45,0.5 1.33331,0.86669 2.41664,2.40002 3.25,4.6 0.83331,2.16668 1.24997,4.90001 1.25,8.2 -3e-5,0.26668 -0.0167,0.50001 -0.05,0.7 -3e-5,0.20001 -3e-5,0.40001 0,0.6 l 3.2,0 0,10.15 -11.45,0 0,-10.15"
         style="font-size:50px"
         id="path3503" />
      <path
         d="m 174.39828,932.55078 c -1e-5,1.10001 0.39999,2.01668 1.2,2.75 0.83333,0.73334 1.81666,1.10001 2.95,1.1 1.16666,10e-6 2.16665,-0.36666 3,-1.1 0.83332,-0.73332 1.24999,-1.64999 1.25,-2.75 -1e-5,-1.06665 -0.41668,-1.98332 -1.25,-2.75 -0.83335,-0.76665 -1.83334,-1.14998 -3,-1.15 -1.13334,2e-5 -2.11667,0.38335 -2.95,1.15 -0.80001,0.73335 -1.20001,1.65001 -1.2,2.75 m -1.15,18.85 c 0,0.29999 0.2,0.56666 0.6,0.8 0.39999,0.26666 0.94999,0.48333 1.65,0.65 0.69999,0.19999 1.51666,0.34999 2.45,0.45 0.96666,0.13333 1.98332,0.19999 3.05,0.2 1.06665,-10e-6 2.06665,-0.0667 3,-0.2 0.96665,-0.10001 1.79998,-0.25001 2.5,-0.45 0.69998,-0.16667 1.24998,-0.38334 1.65,-0.65 0.43331,-0.23334 0.64998,-0.50001 0.65,-0.8 -2e-5,-0.3 -0.21669,-0.58334 -0.65,-0.85 -0.40002,-0.23334 -0.95002,-0.45 -1.65,-0.65 -0.70002,-0.16667 -1.53335,-0.31667 -2.5,-0.45 -0.93335,-0.1 -1.93335,-0.15 -3,-0.15 -1.06668,0 -2.08334,0.05 -3.05,0.15 -0.93334,0.13333 -1.75001,0.28333 -2.45,0.45 -0.70001,0.2 -1.25001,0.41666 -1.65,0.65 -0.4,0.26666 -0.6,0.55 -0.6,0.85 m -4.3,0 c 0,-0.46667 0.11667,-0.93334 0.35,-1.4 0.26667,-0.43334 0.58333,-0.85 0.95,-1.25 0.4,-0.4 0.81666,-0.78334 1.25,-1.15 0.43333,-0.33333 0.83333,-0.65 1.2,-0.95 -1.16667,-0.3 -2,-0.73333 -2.5,-1.3 -0.46667,-0.6 -0.65,-1.2 -0.55,-1.8 0.1,-0.63333 0.46667,-1.21666 1.1,-1.75 0.63333,-0.56666 1.5,-0.96666 2.6,-1.2 -0.66667,-0.33333 -1.28334,-0.78333 -1.85,-1.35 -0.53334,-0.56666 -1,-1.21666 -1.4,-1.95 -0.36667,-0.73332 -0.65,-1.51666 -0.85,-2.35 -0.2,-0.83332 -0.3,-1.68332 -0.3,-2.55 0,-1.59998 0.25,-3.03332 0.75,-4.3 0.5,-1.26665 1.18333,-2.33331 2.05,-3.2 0.86666,-0.89998 1.88333,-1.58331 3.05,-2.05 1.16666,-0.46664 2.39999,-0.69998 3.7,-0.7 0.79999,2e-5 1.68332,0.11669 2.65,0.35 0.96665,0.23336 1.88332,0.58336 2.75,1.05 0.86665,0.46669 1.59998,1.03335 2.2,1.7 0.63332,0.66669 0.98331,1.45002 1.05,2.35 0.19998,-0.53331 0.46665,-1.08331 0.8,-1.65 0.33331,-0.59998 0.73331,-1.14998 1.2,-1.65 0.49998,-0.49998 1.04998,-0.89998 1.65,-1.2 0.59998,-0.33331 1.26664,-0.49998 2,-0.5 l 0,6.7 c -0.80002,-0.26665 -1.65002,-0.36665 -2.55,-0.3 -0.86669,0.0334 -1.56669,0.43335 -2.1,1.2 0.19998,1.66668 0.11665,3.23335 -0.25,4.7 -0.36669,1.46668 -0.98335,2.73334 -1.85,3.8 -0.83335,1.06667 -1.93335,1.88334 -3.3,2.45 -1.33335,0.56667 -2.86668,0.78334 -4.6,0.65 -1.10001,-0.0667 -2.10001,0.0333 -3,0.3 -0.86667,0.23334 -1.45,0.51667 -1.75,0.85 -0.3,0.33334 -0.21667,0.65 0.25,0.95 0.46666,0.3 1.49999,0.46667 3.1,0.5 1.06666,-0.33333 2.21666,-0.53333 3.45,-0.6 1.26665,-0.1 2.51665,-0.05 3.75,0.15 1.26665,0.16667 2.48332,0.46667 3.65,0.9 1.16665,0.4 2.18331,0.91667 3.05,1.55 0.86664,0.63333 1.53331,1.36667 2,2.2 0.49998,0.83333 0.69998,1.76666 0.6,2.8 -2e-5,1.23333 -0.31669,2.33333 -0.95,3.3 -0.63336,0.96666 -1.50002,1.78332 -2.6,2.45 -1.10002,0.69999 -2.38335,1.21665 -3.85,1.55 -1.46668,0.36665 -3.03335,0.54999 -4.7,0.55 -1.70001,-10e-6 -3.30001,-0.18335 -4.8,-0.55 -1.46667,-0.33335 -2.75,-0.85001 -3.85,-1.55 -1.1,-0.66668 -1.96667,-1.48334 -2.6,-2.45 -0.63333,-0.96667 -0.95,-2.06667 -0.95,-3.3"
         style="font-size:50px"
         id="path3505" />
      <path
         d="m 199.51195,942.55078 c 0,-0.7 0.13333,-1.35 0.4,-1.95 0.26666,-0.63333 0.63333,-1.18333 1.1,-1.65 0.46666,-0.46666 1.01666,-0.83333 1.65,-1.1 0.63333,-0.26666 1.29999,-0.39999 2,-0.4 0.69999,10e-6 1.36666,0.13334 2,0.4 0.63332,0.26667 1.18332,0.63334 1.65,1.1 0.46665,0.46667 0.83332,1.01667 1.1,1.65 0.26665,0.6 0.39999,1.25 0.4,1.95 -1e-5,0.7 -0.13335,1.36667 -0.4,2 -0.26668,0.6 -0.63335,1.13333 -1.1,1.6 -0.46668,0.43333 -1.01668,0.78333 -1.65,1.05 -0.63334,0.26667 -1.30001,0.4 -2,0.4 -0.70001,0 -1.36667,-0.13333 -2,-0.4 -0.63334,-0.26667 -1.18334,-0.61667 -1.65,-1.05 -0.46667,-0.46667 -0.83334,-1 -1.1,-1.6 -0.26667,-0.63333 -0.4,-1.3 -0.4,-2 m 0,-35 0,3 c 1.4,-1.16663 2.83333,-1.96663 4.3,-2.4 1.46666,-0.46663 2.86666,-0.69996 4.2,-0.7 1.29999,4e-5 2.68332,0.26671 4.15,0.8 1.46665,0.50004 2.79998,1.23337 4,2.2 1.23331,0.93337 2.24998,2.08337 3.05,3.45 0.83331,1.3667 1.24998,2.90003 1.25,4.6 -2e-5,1.73336 -0.28336,3.21669 -0.85,4.45 -0.53336,1.20002 -1.28335,2.25002 -2.25,3.15 -0.93335,0.86669 -2.05002,1.61669 -3.35,2.25 -1.26668,0.63335 -2.63335,1.23335 -4.1,1.8 -0.70001,0.36668 -1.26668,0.70002 -1.7,1 -0.40001,0.30001 -0.71668,0.61668 -0.95,0.95 -0.23334,0.33335 -0.40001,0.68335 -0.5,1.05 -0.0667,0.36668 -0.10001,0.78335 -0.1,1.25 l -4.1,0 c -0.0333,-1.09999 0.0333,-1.99999 0.2,-2.7 0.19999,-0.69998 0.51666,-1.29998 0.95,-1.8 0.43333,-0.49998 0.98333,-0.96665 1.65,-1.4 0.69999,-0.43332 1.53332,-0.93331 2.5,-1.5 1.43332,-0.83331 2.64999,-1.69998 3.65,-2.6 1.03332,-0.93331 1.54998,-1.83331 1.55,-2.7 -2e-5,-0.69997 -0.20002,-1.34997 -0.6,-1.95 -0.36668,-0.63331 -0.86668,-1.16664 -1.5,-1.6 -0.63335,-0.46664 -1.36668,-0.8333 -2.2,-1.1 -0.80001,-0.26664 -1.63334,-0.39997 -2.5,-0.4 -0.63334,3e-5 -1.31667,0.0667 -2.05,0.2 -0.70001,0.13336 -1.40001,0.3667 -2.1,0.7 -0.66667,0.33336 -1.28334,0.80003 -1.85,1.4 -0.56667,0.56669 -1.03334,1.30003 -1.4,2.2 l -4.3,0 0,-13.6 4.95,0"
         style="font-size:50px"
         id="path3507" />
    </g>
  </g>
</svg>
