<?xml version="1.0" encoding="UTF-8" standalone="no"?>
<!-- Created with Inkscape (http://www.inkscape.org/) -->

<svg
   xmlns:dc="http://purl.org/dc/elements/1.1/"
   xmlns:cc="http://creativecommons.org/ns#"
   xmlns:rdf="http://www.w3.org/1999/02/22-rdf-syntax-ns#"
   xmlns:svg="http://www.w3.org/2000/svg"
   xmlns="http://www.w3.org/2000/svg"
   xmlns:sodipodi="http://sodipodi.sourceforge.net/DTD/sodipodi-0.dtd"
   xmlns:inkscape="http://www.inkscape.org/namespaces/inkscape"
   width="300"
   height="300"
   id="svg2"
   version="1.1"
   inkscape:version="0.48.4 r9939"
   sodipodi:docname="02_wieauchimmer.svg">
  <defs
     id="defs4" />
  <sodipodi:namedview
     id="base"
     pagecolor="#ffffff"
     bordercolor="#666666"
     borderopacity="1.0"
     inkscape:pageopacity="0.0"
     inkscape:pageshadow="2"
     inkscape:zoom="1"
     inkscape:cx="474.19846"
     inkscape:cy="181.50493"
     inkscape:document-units="px"
     inkscape:current-layer="layer1"
     showgrid="false"
     inkscape:window-width="1313"
     inkscape:window-height="664"
     inkscape:window-x="0"
     inkscape:window-y="0"
     inkscape:window-maximized="0"
     units="px"
     showguides="false"
     inkscape:guide-bbox="true"
     gridtolerance="10"
     guidetolerance="9">
    <sodipodi:guide
       orientation="1,0"
       position="10,143"
       id="guide3608" />
    <sodipodi:guide
       orientation="0,1"
       position="55,291"
       id="guide3610" />
    <sodipodi:guide
       orientation="0,1"
       position="120,9"
       id="guide3612" />
    <sodipodi:guide
       orientation="1,0"
       position="290,226"
       id="guide3614" />
  </sodipodi:namedview>
  <metadata
     id="metadata7">
    <rdf:RDF>
      <cc:Work
         rdf:about="">
        <dc:format>image/svg+xml</dc:format>
        <dc:type
           rdf:resource="http://purl.org/dc/dcmitype/StillImage" />
        <dc:title />
      </cc:Work>
    </rdf:RDF>
  </metadata>
  <g
     inkscape:label="Ebene 1"
     inkscape:groupmode="layer"
     id="layer1"
     transform="translate(0,-752.3608)">
    <path
       style="fill:#ffffff;stroke:#000000;stroke-width:1px;stroke-linecap:butt;stroke-linejoin:miter;stroke-opacity:1"
       d="m 27,26 61,-9 111,1 76,6 7,14 2,133 -10,43 -131,12 -75,3 5,39 -15,-15 -7,-24 -29,-6 -8,-43 1,-111 2,-31 z"
       id="path3303"
       inkscape:connector-curvature="0"
       transform="translate(0,752.3608)" />
    <path
       style="fill:#000000"
       d="m 81.224616,1038.4458 c -21.46615,-22.3999 -25.667387,-18.2632 -30.80341,-47.54166 -0.502294,-2.8634 -1.241298,-5.20612 -1.64223,-5.20612 -33.427039,0 -32.902784,0.64167 -36.232878,-44.34854 C 6.6856696,862.174 10.731255,779.76998 22.512429,773.4707 51.995645,757.70633 245.58862,757.38735 278.22964,773.04937 c 17.9814,8.62794 14.62417,196.46836 -3.65898,202.56626 -5.71139,1.90491 -56.77084,4.97261 -142.10756,8.53782 -63.320087,2.64549 -57.362293,1.80806 -57.628057,8.10045 -0.642008,15.2006 -1.101211,14.4712 11.878213,42.836 7.707691,16.8441 7.53712,16.9484 -5.48864,3.3559 z m -14.010101,-33.5553 c -6.574962,-21.1814 -2.491717,-26.75707 1.069925,-29.8551 0.592688,-0.51552 10.872213,-1.13539 27.412191,-1.65289 116.076719,-3.63188 172.333459,-6.72249 176.734519,-9.70935 9.33589,-6.33597 13.18934,-160.93179 4.56555,-178.72954 -3.97136,-8.19609 -35.67829,-11.65949 -106.63486,-11.64788 -91.906666,0.0151 -140.623795,5.31026 -145.600572,15.82585 -8.336406,17.61425 -8.135072,174.34966 0.241367,183.12881 3.066362,3.21384 16.434382,4.55955 27.069602,2.72503 4.355176,-0.75118 4.64015,-0.40282 5.300631,6.48057 2.061414,21.4836 2.086781,19.7858 10.276448,31.2027 2.852055,3.9759 2.773163,2.5664 -0.434801,-7.7682 z"
       id="path3004"
       inkscape:connector-curvature="0"
       sodipodi:nodetypes="sssssssssssssssssssssss" />
    <g
       transform="scale(0.96574744,1.0354674)"
       style="font-size:40.15176392px;font-style:normal;font-weight:normal;line-height:103.99999619%;letter-spacing:0px;word-spacing:0px;fill:#000000;fill-opacity:1;stroke:none;font-family:Sans"
       id="text3006">
      <path
         d="m 80.701173,757.49554 0.615234,0 c 1.162049,0.68368 1.743103,1.56096 1.743164,2.63184 -6.1e-5,1.57235 -3.019264,5.66251 -9.057617,12.27051 -4.033251,6.19798 -7.542363,12.72629 -10.527343,19.58496 -3.896523,11.71228 -8.863966,25.16767 -14.902344,40.36621 l -3.520508,5.26367 0.273437,0 c 10.071581,-6.97264 21.191362,-18.37725 33.359375,-34.21387 2.848248,-5.24084 5.673766,-11.47293 8.476563,-18.69628 2.984957,-3.50906 5.320567,-5.26361 7.006836,-5.26368 0.774666,0.29629 1.162035,0.96849 1.162109,2.01661 -7.4e-5,1.13938 -1.65209,6.3119 -4.956054,15.51757 -2.529364,8.52218 -4.192774,16.12145 -4.990235,22.79786 0.205014,0.34181 0.307553,0.72918 0.307617,1.1621 -0.592511,0.82034 -0.888735,3.25849 -0.888671,7.31446 l 0,2.32422 0.307617,3.5205 -0.581055,0.30762 c 0.956967,14.56054 2.119075,22.93456 3.486328,25.12207 l 0,0.30762 0.307617,0 0,-0.30762 c -0.205145,-2.73439 -0.307684,-5.07 -0.307617,-7.00683 l 0,-1.46973 c -6.7e-5,-0.1823 0.102472,-0.27345 0.307617,-0.27344 l -0.307617,-0.58105 c -6.7e-5,-5.76498 1.560804,-14.15039 4.682617,-25.15625 4.329352,-11.94008 9.889247,-21.9775 16.679687,-30.11231 1.25317,-1.89122 2.22159,-3.06473 2.90527,-3.52051 0.82023,-0.38731 1.50382,-1.35574 2.05079,-2.90527 0.95693,6e-5 2.0279,-0.78608 3.21289,-2.3584 0.25055,6e-5 3.37229,-2.23301 9.36523,-6.69922 3.28114,-1.89121 5.22938,-3.64576 5.84473,-5.26367 l 0.58105,0 c 0.63791,0.38744 1.12782,0.58113 1.46973,0.58106 9.31954,-3.89642 16.82767,-5.84466 22.52441,-5.84473 3.18997,0.18237 5.61672,0.4672 7.28028,0.85449 l 1.46972,-0.27344 c 5.51418,1.39005 9.31951,3.8282 11.41602,7.31446 1.93669,3.75983 2.90511,7.55377 2.90527,11.38183 -1.6e-4,8.02088 -3.01936,13.47824 -9.05762,16.37207 l -0.88867,0 0,-0.27343 c 5.08123,-4.71676 7.62192,-9.50191 7.62207,-14.35547 l 0.27344,0 -0.27344,-0.58106 0,-4.375 c -0.31916,-2.66595 -1.58381,-5.49147 -3.79394,-8.47656 -2.34716,-2.27858 -4.97899,-3.73691 -7.89551,-4.375 -0.20522,7e-5 -0.30776,0.0912 -0.30762,0.27344 l -3.52051,-0.27344 c -6.42591,7e-5 -15.28983,2.91674 -26.59179,8.75 -7.01834,4.83079 -13.05674,9.70708 -18.11524,14.62891 -3.71428,3.89653 -7.22339,8.08923 -10.52734,12.57812 l 0.27344,0.58106 c -2.21037,1.61787 -4.84221,5.32066 -7.895511,11.1084 -6.220775,11.80339 -9.331123,22.22819 -9.331054,31.27441 l 0,3.52051 c -6.9e-5,5.60545 1.162039,12.2363 3.486328,19.89258 l 0,0.58105 -0.581055,0 c -0.569733,-0.11396 -2.221749,-2.84834 -4.956055,-8.20313 -5.263733,-15.44922 -7.895567,-31.62759 -7.895507,-48.53515 l 0.273437,-1.16211 c -5.9e-5,-0.20505 -0.09121,-0.30759 -0.273437,-0.30762 0.182232,-3.66859 0.569601,-8.33981 1.162109,-14.01367 l 0,-0.30762 -0.273438,0 c -4.261123,7.04105 -11.08566,15.23278 -20.473632,24.5752 -6.357455,6.19792 -11.917346,10.778 -16.679688,13.74023 -3.964863,1.36719 -6.984065,2.05078 -9.057617,2.05078 l -2.631836,0 c -4.488939,-1.09374 -7.610681,-2.95084 -9.365234,-5.57129 -0.979819,-2.91665 -1.560873,-4.37499 -1.743164,-4.375 0.25065,-2.00519 0.546874,-3.26984 0.888671,-3.79394 l -0.307617,-0.58106 c 1.526691,-4.28383 4.158524,-7.40557 7.895508,-9.36523 1.708974,-0.97979 3.46353,-1.4697 5.263672,-1.46973 l 0.581055,0 c 0.387355,0.0684 0.581039,0.26207 0.581054,0.58106 -1.5e-5,0.22789 -1.948255,1.10517 -5.844726,2.63183 -4.488937,3.48635 -6.733401,6.80178 -6.733399,9.94629 l 0,1.46973 c -2e-6,1.98243 1.082354,3.93067 3.247071,5.84473 2.620434,1.48112 5.047189,2.3584 7.280273,2.63183 l 1.196289,0 c 7.884093,0 14.606091,-11.79198 20.166016,-35.37597 0.774704,-2.27861 3.110314,-11.34761 7.006836,-27.20704 0.546833,-0.47845 1.230426,-2.32415 2.050781,-5.5371 0.341753,-0.0911 1.800085,-2.52923 4.375,-7.31446 3.964792,-5.26359 7.861273,-7.89542 11.689453,-7.89551 m -2.016602,5.57129 0,0.58106 c 0.387313,8e-5 0.580997,-0.19361 0.581055,-0.58106 l 0,-0.61523 c -0.387427,0.0684 -0.581112,0.27352 -0.581055,0.61523 m -2.939453,0 0,0.58106 c 0.592393,0.70646 0.888617,1.39005 0.888672,2.05078 l 0.273438,0 c 0.296168,8e-5 0.592391,-0.29615 0.888672,-0.88867 l 0,-0.58106 c -0.592504,8e-5 -1.276097,-0.38729 -2.050782,-1.16211 m -2.939453,1.16211 0,0.27344 c 1.184843,0.59253 1.868436,0.88875 2.050781,0.88867 -0.569714,-1.18481 -0.854544,-1.86841 -0.854492,-2.05078 l -0.307617,0 c -0.273489,8e-5 -0.569713,0.2963 -0.888672,0.88867 m -2.905273,3.79395 0,0.27344 c -4.9e-5,0.29629 0.877229,0.97989 2.631836,2.05078 l 0.273437,0 0,-0.58106 c -5.1e-5,-1.02531 -0.581105,-2.09628 -1.743164,-3.21289 -0.273487,0.0229 -0.660856,0.51277 -1.162109,1.46973 m 3.793945,-0.58106 0,0.27344 c -5.2e-5,0.2963 0.296171,0.59252 0.888672,0.88867 l 0.273437,0 0,-0.30761 c -5.3e-5,-0.27337 -0.284883,-0.5582 -0.854492,-0.8545 l -0.307617,0 m -5.537109,3.21289 -0.888672,2.05079 c 1.070916,0.38744 2.03934,0.96849 2.905273,1.74316 l 0.307617,-0.58106 c -0.843147,-2.14185 -1.617886,-3.21281 -2.324218,-3.21289 m -1.196289,3.79395 0,0.30762 c 0.637974,1.1166 1.321567,1.89134 2.050781,2.32422 0.387322,-0.63796 0.581006,-1.12787 0.581055,-1.46973 -1.390021,-0.77467 -2.267299,-1.16204 -2.631836,-1.16211 m 72.529301,1.16211 0,0.88867 0.58105,0 0,-0.88867 -0.58105,0 m -73.691411,0.30762 c -4.4e-5,0.29629 -0.193729,0.68366 -0.581054,1.16211 l 0,0.30761 1.469726,0.27344 0,-0.27344 c -0.136764,-0.97975 -0.432987,-1.46966 -0.888672,-1.46972 m 0.307617,2.90527 0,0.30762 c -4.4e-5,0.2735 0.284786,0.56972 0.854493,0.88867 0.41011,6e-5 0.615188,-0.19362 0.615234,-0.58106 l 0,-0.30761 c -0.660853,6e-5 -1.150761,-0.10248 -1.469727,-0.30762 m 65.180664,0.30762 -0.27344,0.58105 0,1.16211 0.58106,0 c 0.27332,6e-5 0.55816,-0.28477 0.85449,-0.85449 l -1.16211,-0.88867 m -2.63184,2.32422 0,0.30761 c 0.0683,0.38743 0.26194,0.58112 0.58106,0.58106 l 0.30762,0 0,-0.58106 c -0.20519,6e-5 -0.50141,-0.10248 -0.88868,-0.30761 m -63.710933,0.61523 0,0.27344 c 0.04553,0.38743 0.239214,0.58111 0.581055,0.58105 l 0.273437,0 0,-0.58105 c -0.205122,6e-5 -0.489953,-0.0911 -0.854492,-0.27344 m 61.660153,0 0,0.27344 c 0.0683,0.38743 0.26194,0.58111 0.58106,0.58105 l 0.30762,0 0,-0.27344 c -1.1e-4,-0.3873 -0.1938,-0.58099 -0.58106,-0.58105 l -0.30762,0 m -63.437497,0.85449 -0.273437,0.58106 0,0.30761 c 0.04553,0.38743 0.239216,0.58112 0.581055,0.58106 l 0.854492,0 c -0.501345,-0.95697 -0.888714,-1.44688 -1.16211,-1.46973 m 62.001957,0.58106 0,0.30761 c 0.38726,0.63808 0.58095,1.12799 0.58105,1.46973 0.38727,6e-5 0.58095,-0.19363 0.58106,-0.58105 l 0,-0.30762 c -1.1e-4,-0.27338 -0.29633,-0.5696 -0.88868,-0.88867 l -0.27343,0 m -1.77735,0.88867 -0.27343,0.58105 0.58105,0.30762 0.27344,0 0,-0.30762 c -1.1e-4,-0.38731 -0.19379,-0.58099 -0.58106,-0.58105 m -61.079099,2.63183 -0.307617,1.46973 0.307617,0 c 0.364542,-0.20502 0.649373,-0.30756 0.854492,-0.30762 -0.182333,-0.34174 -0.273479,-0.72911 -0.273437,-1.16211 l -0.581055,0 m 57.866209,0 0,0.88868 c -10e-5,0.27349 0.29613,0.55832 0.88867,0.85449 l 0.27344,0 c -0.38747,-0.63797 -0.58115,-1.21902 -0.58105,-1.74317 l -0.58106,0 m -32.436521,1.74317 0,0.58105 c 0.797459,-0.25059 1.378513,-0.72911 1.743164,-1.43554 l -0.307617,0 c -0.957099,0.2507 -1.435614,0.53553 -1.435547,0.85449 m 1.743164,1.77734 0.581054,0.27344 0.307618,0 0,-1.46973 c -0.296293,6e-5 -0.592517,0.39882 -0.888672,1.19629 m 28.061527,-1.19629 0,0.58106 c 0.0683,0.41021 0.26194,0.61528 0.58105,0.61523 l 0,-0.61523 c -1e-4,-0.38732 -0.19378,-0.581 -0.58105,-0.58106 m -3.21289,3.21289 c -1e-4,0.29628 0.29613,0.5925 0.88867,0.88868 l 0.58105,0 0,-0.27344 c -0.38746,-0.47847 -0.58115,-0.87723 -0.58105,-1.19629 l -0.30762,0 c -0.38746,0.0684 -0.58115,0.26209 -0.58105,0.58105 m 2.93945,-0.58105 0,0.30762 c 0.0455,0.38742 0.23916,0.5811 0.58105,0.58105 l 0.27344,0 0,-0.58105 c -0.20517,5e-5 -0.49,-0.10249 -0.85449,-0.30762 m -29.838869,3.21289 0.888672,0 c 0.432876,5e-5 0.717706,-0.47847 0.854493,-1.43555 l -0.273438,0 c -0.273505,5e-5 -0.763413,0.47857 -1.469727,1.43555 m 26.318359,-0.27344 c 0.29613,0.77479 0.59236,1.16216 0.88867,1.16211 l 0.27344,0 0,-0.88867 -1.16211,-0.27344 m -2.63184,1.46973 0,0.27344 1.46973,0.30761 0,-0.30761 c -0.38746,-0.47847 -0.58114,-0.86584 -0.58105,-1.16211 -0.29632,4e-5 -0.59254,0.29627 -0.88868,0.88867 m -26.899409,2.90527 0.307617,0 2.631836,-2.05078 0,-0.27344 c -1.959699,5e-5 -2.939516,0.77479 -2.939453,2.32422 m 26.899409,-0.58105 0,0.88867 0.58106,0 0,-0.88867 -0.58106,0 m -23.959956,0.30761 c -6.6e-5,0.20513 -0.102605,0.48996 -0.307617,0.8545 l 0.888672,0 0,-0.8545 -0.581055,0 m 21.328126,2.05079 0,0.27343 c -9e-5,0.27348 0.29614,0.56971 0.88867,0.88868 l 0.27344,0 0,-0.30762 c -9e-5,-0.2734 -0.28492,-0.55823 -0.85449,-0.85449 l -0.30762,0 m -2.05078,0.85449 0,0.88867 c 0.31892,4e-5 0.70629,0.19373 1.16211,0.58105 l 0.30761,0 0,-0.30761 c -8e-5,-0.29619 -0.38745,-0.68356 -1.16211,-1.16211 l -0.30761,0 m -22.797854,2.05078 0.307617,0 c 0.273375,4e-5 0.854429,-0.58102 1.743164,-1.74316 l -0.307617,0 c -1.162172,4e-5 -1.743226,0.58109 -1.743164,1.74316 m 1.743164,0.58105 0,0.88868 c 0.29616,3e-5 0.592384,-0.29619 0.888672,-0.88868 l 0,-0.27343 c -0.387434,0.18233 -0.683658,0.27347 -0.888672,0.27343 m 19.89258,-0.27343 0,0.58105 c -9e-5,0.29626 0.38728,0.68363 1.16211,1.16211 l 0.58105,-0.88867 -1.16211,-0.85449 -0.58105,0 m -1.46973,2.0166 c -8e-5,0.2279 -0.0912,0.52412 -0.27344,0.88867 l 1.43555,0.88867 0.30762,-0.58105 c -9e-5,-0.31898 -0.38745,-0.71774 -1.16211,-1.19629 l -0.30762,0 m -20.747069,2.93945 c 0.273376,4e-5 0.956969,-0.68356 2.050782,-2.05078 l 0,-0.27344 -1.16211,0 c -0.410218,4e-5 -0.706442,0.77478 -0.888672,2.32422 m 18.115239,1.16211 c 0.20499,0.3874 0.30753,0.68363 0.30761,0.88867 l 0.58106,0 0,-0.88867 -0.88867,0 m -18.422856,2.05078 0,1.74317 0.307617,0 c 0.25059,2e-5 0.740498,-0.47849 1.469727,-1.43555 l 0,-0.30762 -1.777344,0 m 17.841796,0 0,0.58106 c 0.205,0.3874 0.30754,0.68362 0.30762,0.88867 0.38729,3e-5 0.58097,-0.19366 0.58105,-0.58106 l 0,-0.58105 c -0.20516,3e-5 -0.50138,-0.10251 -0.88867,-0.30762 m -18.115233,9.36524 0.581054,0.27343 0.273438,-0.58105 0,-0.27344 -0.273438,0 c -0.387431,0.0456 -0.581115,0.23928 -0.581054,0.58106"
         style="letter-spacing:6.10000181px"
         id="path3250" />
      <path
         d="m 126.54413,802.22134 c 1.52874,0.98463 1.96804,2.57517 1.31791,4.77162 l -0.82842,0.28311 -1.32475,-3.07138 -0.42832,-0.11028 c -2.36518,1.28216 -3.85333,2.95557 -4.46445,5.02023 -0.3381,1.1422 -0.17802,1.99896 0.48025,2.57027 l 0.23062,0.0594 1.72512,-0.79687 0.23063,0.0594 c 0.26601,0.13945 0.36327,0.32996 0.29177,0.57154 -1.75244,2.00725 -3.15581,2.87513 -4.21011,2.60364 l -2.04273,-0.52596 c -1.00899,-1.06347 -1.33144,-2.21024 -0.96734,-3.4403 l 0.4681,-1.58147 c 1.18327,-3.99756 3.80726,-6.19405 7.87199,-6.58949 l 1.64973,0.17656 m -10.35905,18.46589 c 0.28799,0.1451 0.39624,0.33843 0.32473,0.58001 l -0.2048,0.6919 c -2.29856,3.85229 -3.94195,7.44774 -4.93017,10.78639 -1.48885,5.02995 -1.47548,7.74003 0.0401,8.13026 0.56949,0.31211 1.08488,0.52754 1.54615,0.64631 1.73591,0.0451 4.81571,-2.61319 9.23942,-7.97486 l 0.51978,-0.0789 0.69188,0.17814 -0.0585,0.19769 c -1.19015,2.74298 -4.02982,5.94768 -8.51905,9.61412 -1.87651,0.50968 -3.00145,0.71644 -3.37485,0.6203 l -2.04273,-0.52596 c -2.54792,-0.65603 -3.55436,-2.80626 -3.01931,-6.45072 l 0.56221,-1.06082 0.27306,-0.92253 c 1.21578,-4.10741 3.96918,-8.97722 8.2602,-14.60946 l 0.69189,0.17815"
         style="letter-spacing:6.10000181px"
         id="path3252"
         inkscape:connector-curvature="0" />
      <path
         d="m 144.43012,819.22406 c 4.60284,0.47854 6.90427,2.0622 6.90429,4.75098 l 0,0.44433 c -2e-5,2.02801 -1.73179,4.3978 -5.19531,7.10938 -2.66603,1.8685 -5.10418,2.80274 -7.31445,2.80273 l -0.44434,0 c -1.86849,-0.11392 -2.80274,-0.41015 -2.80273,-0.88867 l 0,-0.41016 0.44433,-0.64941 c 1.16211,0.27345 2.09635,0.41017 2.80274,0.41016 3.1673,10e-6 6.47134,-2.0052 9.91211,-6.01563 0.56964,-1.20766 0.85447,-2.21027 0.85449,-3.00781 -0.59247,-1.59503 -1.66343,-2.39256 -3.21289,-2.39258 l -0.88867,0 c -2.50653,0.13674 -5.08139,1.50393 -7.72461,4.10156 -2.59766,2.84832 -3.89649,5.65106 -3.89649,8.40821 0,1.54948 0.86588,2.91667 2.59766,4.10156 0.34179,0 1.27603,0.43295 2.80273,1.29883 1.1621,0 2.09635,0.0684 2.80274,0.20507 1.27603,10e-6 4.28384,-1.00259 9.02343,-3.00781 2.00519,-0.95702 4.15851,-2.97362 6.45997,-6.0498 0.29619,0.0456 0.4443,0.19369 0.44433,0.44433 l 0,0.41016 c -0.61526,2.50652 -3.98765,5.59408 -10.11719,9.2627 -2.66603,1.73177 -5.61687,2.59765 -8.85254,2.59765 -6.31185,-0.93424 -9.46777,-4.0218 -9.46777,-9.26269 0,-3.25846 2.22168,-6.99543 6.66504,-11.21094 2.91666,-2.30141 5.65103,-3.45213 8.20313,-3.45215 m -11.86036,10.35645 0,0.44433 c 0.3418,10e-6 0.55827,-0.36457 0.64942,-1.09375 -0.20508,2e-5 -0.42155,0.21649 -0.64942,0.64942 m -1.29882,3.8623 0,0.23926 0.23925,0 c 0.27344,1e-5 0.41016,-0.1481 0.41016,-0.44434 l 0,-0.20508 -0.20508,0 c -0.29622,0.0456 -0.44433,0.18231 -0.44433,0.41016 m 0.44433,1.29883 -0.20508,0.44433 c 0.0456,0.27345 0.18229,0.41017 0.41016,0.41016 l 0.23926,-0.41016 c 0,-0.29621 -0.14812,-0.44432 -0.44434,-0.44433 m 0.44434,1.94824 0,0.44434 c 0.0456,0.27344 0.18229,0.41016 0.41015,0.41015 l 0.23926,0 0,-0.85449 -0.64941,0 m 2.15332,2.59766 0,0.20507 c 0.0456,0.27345 0.18229,0.41016 0.41015,0.41016 0.29622,0 0.44434,-0.13671 0.44434,-0.41016 l 0,-0.20507 -0.85449,0 m 3.8623,1.5039 -0.20508,0.41016 0.64942,0 c -1e-5,-0.27344 -0.14812,-0.41015 -0.44434,-0.41016 m 2.15332,0.41016 0,0.23926 0.8545,0 0,-0.23926 -0.8545,0"
         style="letter-spacing:7.28000021px"
         id="path3254"
         inkscape:connector-curvature="0" />
      <path
         d="m 194.13278,819.25824 c 3.23566,0.29625 4.8535,0.7064 4.85352,1.23047 -2e-5,0.11395 -0.26206,0.376 -0.78613,0.78613 -0.52411,-0.1367 -2.14195,-0.27341 -4.85352,-0.41015 -1.09376,2e-5 -3.0534,0.80894 -5.87891,2.42675 -2.71159,2.59768 -4.06738,5.03582 -4.06738,7.31446 l -0.20508,0 0.20508,0.41015 0,0.58106 c 0,3.48633 1.01399,5.78776 3.04199,6.90429 1.09375,0.66082 1.97102,0.99122 2.63184,0.99121 l 1.02539,0 c 1.18488,10e-6 2.666,-0.74055 4.44336,-2.22167 1.23045,-1.07096 2.24445,-2.41536 3.04199,-4.03321 l 0,-1.02539 c 0.22785,-5.40037 0.62661,-8.10057 1.19629,-8.10058 0.20506,10e-6 0.41014,0.20509 0.61523,0.61523 l 0,0.41016 c -0.27345,4.35222 -0.41017,6.71062 -0.41015,7.07519 l 0,1.81152 c -2e-5,4.32944 0.54685,6.49415 1.64062,6.49415 l 0.78614,0 c 1.9824,0 3.67998,-1.95964 5.09277,-5.87891 0.52406,-1.20767 0.85447,-1.81151 0.99121,-1.81152 l 0.41016,0 0,0.61523 c -3e-5,3.05339 -1.28746,5.75358 -3.86231,8.10059 -1.02541,0.52409 -2.09637,0.85449 -3.21289,0.99121 -1.77736,0 -2.85972,-1.61784 -3.24707,-4.85352 l 0,-0.61523 -0.61523,0 c -2.87111,4.05599 -6.10678,6.08398 -9.70703,6.08398 l -1.02539,0 c -1.89128,0 -3.97624,-1.28743 -6.25489,-3.8623 -0.82031,-2.09635 -1.23046,-3.30403 -1.23047,-3.62305 l 0,-1.02539 c 10e-6,-4.32942 2.028,-8.30565 6.08399,-11.92871 3.44075,-2.30141 6.5397,-3.45213 9.29687,-3.45215 m -12.54394,14.38965 -0.61524,0.99121 0,0.20508 c 0.43295,-0.27343 0.77474,-0.41015 1.02539,-0.41016 l 0,-0.41016 c 0,-0.25064 -0.13672,-0.37596 -0.41015,-0.37597 m -0.61524,2.83691 0,0.1709 0.41016,0 c 0,-0.13671 0.0684,-0.3304 0.20508,-0.58105 l -0.20508,0 c -0.27344,0.0456 -0.41016,0.18229 -0.41016,0.41015 m 1.43555,2.63184 0,0.1709 0.37598,0 0,-0.58106 c -0.25066,0.0456 -0.37598,0.1823 -0.37598,0.41016 m 1.81152,0.1709 -0.20507,0.82031 0.20507,0 c 0.27344,0 0.41016,-0.13672 0.41016,-0.41016 0,-0.27343 -0.13672,-0.41015 -0.41016,-0.41015"
         style="letter-spacing:0.06px"
         id="path3256" />
      <path
         d="m 211.24844,819.18988 c 0.79753,2e-5 1.32161,0.8887 1.57227,2.66602 l 0,1.12793 c -1.20769,7.29168 -1.81153,11.55274 -1.81152,12.7832 0.52408,3.28125 1.80012,4.92188 3.82812,4.92187 l 0.44434,-0.23925 c 0.25064,0.1595 0.54686,0.23926 0.88867,0.23925 2.8483,-1.13932 4.27245,-2.40396 4.27246,-3.79394 1.34439,-1.41275 2.01659,-3.80533 2.0166,-7.17774 0.70637,-4.69399 1.52668,-7.31443 2.46094,-7.86132 0.43292,2e-5 0.6494,0.30763 0.64941,0.92285 -1.04819,3.66863 -1.57228,7.62208 -1.57226,11.86035 l 0,0.88867 c -2e-5,2.71159 0.67218,4.58008 2.0166,5.60547 2.68878,0 5.013,-2.31282 6.97266,-6.93848 0.72914,-1.04816 1.17347,-1.57225 1.333,-1.57226 0.2962,1e-5 0.44431,0.22787 0.44434,0.68359 -3e-5,2.23308 -1.42418,4.92188 -4.27246,8.06641 -1.00263,1.18489 -2.71161,1.77734 -5.12695,1.77734 -1.93687,-1.07096 -2.90529,-2.8597 -2.90528,-5.36621 l -0.23926,0 c -1e-5,1.23047 -1.64063,2.8711 -4.92187,4.92188 l -2.25586,0 c -3.55469,0 -5.93587,-1.78874 -7.14355,-5.36622 -0.45573,-1.95962 -0.6836,-3.75975 -0.6836,-5.40039 0,-4.71678 1.04818,-8.89809 3.14453,-12.54394 0.0684,2e-5 0.36458,-0.0683 0.88867,-0.20508 m -1.333,6.04981 -0.23926,0.44433 0,0.88867 c 0.59244,-0.22784 0.88867,-0.45571 0.88867,-0.68359 0,-0.20506 -0.21647,-0.42153 -0.64941,-0.64941 m -0.6836,3.14453 0.44434,0.20507 0.44434,0 0,-0.88867 c -0.59246,0.22788 -0.88868,0.45575 -0.88868,0.6836"
         style="font-size:70px;font-variant:normal;font-weight:bold;font-stretch:normal;text-align:center;line-height:103.99999619%;text-anchor:middle;font-family:Mad Beef;-inkscape-font-specification:Mad Beef Bold"
         id="path3258" />
      <path
         d="m 245.83829,820.07855 0.54687,0 c 3.32681,0.66083 4.99022,1.7204 4.99024,3.17871 l -0.37598,0.20508 -0.20508,0 c -1.80014,-1.02537 -3.32683,-1.652 -4.58007,-1.87988 -3.0534,2e-5 -5.63966,1.75458 -7.75879,5.26367 -0.97983,2.43817 -1.46973,4.77377 -1.46973,7.00684 0,2.09636 1.53808,4.13574 4.61426,6.11816 1.27603,0.56966 2.43814,0.85449 3.48633,0.85449 l 2.22168,0 c 2.21027,0 5.27504,-2.25585 9.19433,-6.76758 -2e-5,-0.20506 1.23045,-2.17609 3.69141,-5.91308 0.36455,10e-6 0.54685,0.27345 0.54687,0.82031 -2.21031,5.60548 -5.70803,9.84376 -10.49316,12.71484 -2.68882,0.97982 -4.2269,1.46973 -4.61426,1.46973 -0.11394,0 -0.17091,-0.0684 -0.1709,-0.20508 l -0.92285,0.20508 -0.71777,0 c -7.13217,-1.25325 -10.69824,-4.7054 -10.69825,-10.35644 1e-5,-5.90168 3.25847,-10.0602 9.7754,-12.47559 1.25324,-0.15948 2.23306,-0.23923 2.93945,-0.23926 m -11.24512,11.21094 0,0.64941 0.54688,0 c 0.25065,2e-5 0.37597,-0.1367 0.37597,-0.41015 l 0,-0.23926 -0.92285,0 m 0.20508,2.97363 0,0.20508 c 0.18229,0.56967 0.36458,0.8545 0.54687,0.85449 l 0.3418,0 0,-0.41015 c 0,-0.20507 -0.18229,-0.42154 -0.54687,-0.64942 l -0.3418,0"
         style="font-size:70px;font-variant:normal;font-weight:bold;font-stretch:normal;text-align:center;line-height:103.99999619%;text-anchor:middle;font-family:Mad Beef;-inkscape-font-specification:Mad Beef Bold"
         id="path3260" />
      <path
         d="m 259.13419,770.34711 c 5.55989,7e-5 9.52473,4.02188 11.89453,12.06543 0.41014,2.71164 0.61522,4.55734 0.61523,5.53711 l 0,2.32421 c -1e-5,7.74745 -2.40398,16.85063 -7.21191,27.30958 l -1.67481,5.29785 c 2.5293,-2.39256 5.2067,-3.58885 8.03223,-3.58887 2.87108,2e-5 4.99022,1.98244 6.35742,5.94727 -2e-5,1.41277 0.1481,2.11915 0.44434,2.11914 -2e-5,2.55209 -0.85451,7.98666 -2.56348,16.30371 -10e-6,0.13671 0.0797,0.20507 0.23926,0.20507 l -0.23926,1.05958 0,1.91406 c -10e-6,5.65103 1.84569,9.88931 5.53711,12.71484 l 0.20508,0.41016 0,0.23926 c -2e-5,0.27342 -0.21649,0.41013 -0.64941,0.41015 -3.21291,-1.61785 -5.46877,-4.51173 -6.76758,-8.68164 -0.56968,-0.72917 -0.99123,-2.56348 -1.26465,-5.50293 0.1367,-0.77474 0.20506,-1.41276 0.20508,-1.91406 l 0,-2.11914 c -2e-5,-1.95963 0.35317,-5.35481 1.05957,-10.18555 l 0,-2.73437 c -2e-5,-3.75975 -1.34442,-5.95864 -4.03321,-6.59668 -0.52409,-0.27342 -1.09375,-0.41014 -1.70898,-0.41016 -3.7142,2e-5 -6.25489,4.37502 -7.62207,13.125 l 0.20508,0.44434 c -0.27344,1.07097 -0.41016,2.06218 -0.41016,2.97363 l 0,3.38379 c 0,0.27344 -0.13672,0.41015 -0.41016,0.41015 l -0.44433,0 c -0.36458,0 -0.64941,-1.05956 -0.85449,-3.17871 l 0.23925,-1.05957 0,-2.11914 c 10e-6,-4.96743 1.48112,-13.36424 4.44336,-25.19043 0.70638,-1.64059 1.61784,-5.03577 2.73438,-10.18554 -10e-6,-0.11389 -0.0684,-0.68355 -0.20508,-1.70899 0.82031,5e-5 1.59505,-3.88504 2.32422,-11.65527 -10e-6,-7.9752 -1.41277,-12.70338 -4.23828,-14.18457 -0.50131,-0.43287 -1.76595,-0.85442 -3.79395,-1.26465 l -0.44433,0 c -3.91927,7e-5 -7.87272,3.03067 -11.86035,9.0918 l -0.20508,-0.41016 0,-1.26465 c 1.3672,-3.50905 3.83952,-6.2662 7.41699,-8.27148 1.91407,-0.70631 3.46354,-1.0595 4.64844,-1.05957 m 9.53613,22.25097 0,1.05957 c 0.61522,-0.34174 1.04817,-0.83165 1.29883,-1.46972 l -0.85449,0 c -0.29624,0.0228 -0.44435,0.15955 -0.44434,0.41015 m 0.44434,2.5293 0.61523,0 0,-0.61523 c -0.20509,4e-5 -0.41017,0.20512 -0.61523,0.61523 m -1.05957,1.91406 0,0.64942 c 0.54686,-0.4329 0.96841,-0.64937 1.26464,-0.64942 l 0,-0.61523 -0.64941,0 c -0.20509,5e-5 -0.41017,0.20512 -0.61523,0.61523 m -0.44434,2.56348 c 0.59244,0.27348 1.02538,0.4102 1.29883,0.41016 0.27343,-0.45569 0.41014,-0.87724 0.41015,-1.26465 -0.13672,4e-5 -0.20508,-0.0683 -0.20507,-0.20508 -1.00262,0.36463 -1.50392,0.71782 -1.50391,1.05957 m -0.41016,2.11914 0,0.82031 c 0.22786,4e-5 0.51269,-0.27339 0.8545,-0.82031 l 0,-0.44434 -0.44434,0 c -0.27345,0.0456 -0.41016,0.19373 -0.41016,0.44434 m -3.38379,12.06543 0,0.64941 c 0.27344,3e-5 0.41016,-0.14808 0.41016,-0.44433 l -0.41016,-0.20508 m 10.59571,10.80078 0,0.20508 0.41015,0 0,-0.61524 c -0.27345,0.0456 -0.41017,0.18232 -0.41015,0.41016"
         style="font-size:70px;font-variant:normal;font-weight:bold;font-stretch:normal;text-align:center;line-height:103.99999619%;text-anchor:middle;font-family:Mad Beef;-inkscape-font-specification:Mad Beef Bold"
         id="path3262" />
      <path
         d="m 52.971878,864.48887 c 1.955066,0.63482 2.932604,2.22173 2.932617,4.76075 l -0.799804,0.5332 -2.399415,-2.93262 -0.495117,0 c -2.132819,2.0313 -3.199225,4.24028 -3.199218,6.62696 -7e-6,1.32035 0.444329,2.19632 1.333007,2.62793 l 0.266602,0 1.599609,-1.33301 0.266602,0 c 0.330068,0.0762 0.495107,0.25394 0.495117,0.5332 -1.244149,2.64066 -2.475593,3.96097 -3.694336,3.96094 l -2.361328,0 c -1.421878,-0.86325 -2.132814,-2.00582 -2.132813,-3.42774 l 0,-1.82812 c -10e-7,-4.62105 2.120114,-7.70601 6.360352,-9.25488 l 1.828125,-0.26661 m -5.255859,22.69922 c 0.355463,0.0762 0.533197,0.25394 0.533203,0.53321 l 0,0.7998 c -1.244145,4.77346 -1.866215,9.08986 -1.866211,12.94922 -4e-6,5.81446 0.875972,8.72168 2.62793,8.72168 0.71093,0.17774 1.333,0.2666 1.86621,0.2666 1.878897,-0.43164 4.341785,-4.13866 7.388672,-11.12109 l 0.533203,-0.22852 0.799805,0 0,0.22852 c -0.406266,3.2754 -2.437514,7.50293 -6.09375,12.68261 -1.853524,1.06641 -2.996101,1.59961 -3.427734,1.59961 l -2.361328,0 c -2.945315,0 -4.709961,-2.03124 -5.293946,-6.09375 l 0.266602,-1.29492 0,-1.0664 c 0,-4.74804 1.409178,-10.74022 4.227539,-17.97657 l 0.799805,0"
         style="font-size:78px;font-variant:normal;font-weight:bold;font-stretch:normal;text-align:center;text-anchor:middle;font-family:Mad Beef;-inkscape-font-specification:Mad Beef Bold"
         id="path3264" />
      <path
         d="m 70.415237,886.88341 c 3.097642,2e-5 5.090804,2.29787 5.979493,6.89355 l 0.228515,0.87598 c 1.751933,-3.27537 3.973611,-5.48435 6.665039,-6.62696 1.04099,-0.30466 2.297825,-0.457 3.770508,-0.45703 2.691375,3e-5 4.456022,1.91702 5.293945,5.75098 l 0,2.66602 c -3.3e-5,1.09181 -0.660189,5.38282 -1.980468,12.87304 l 0,1.79004 c -3.2e-5,2.51367 0.812467,3.77051 2.4375,3.77051 1.980432,0 4.41793,-2.74219 7.312501,-8.22656 0.58394,-0.43164 1.02828,-0.64746 1.33301,-0.64746 l 0.22851,0.41894 c -2.589882,6.95703 -5.624059,10.43554 -9.102537,10.43555 -2.666047,-0.58399 -3.999054,-2.42481 -3.999023,-5.52246 -3.1e-5,-0.38086 -0.139679,-0.76172 -0.418946,-1.14258 l 0.228516,-1.10449 c -3e-5,-0.15234 -0.0762,-0.22851 -0.228516,-0.22852 0.279267,-1.42187 0.418915,-3.41503 0.418946,-5.97949 l 0,-5.10352 c -0.736358,-3.68162 -1.917021,-5.52244 -3.541993,-5.52246 l -1.333007,0 c -1.574243,2e-5 -2.907249,0.73635 -3.999024,2.20899 -1.904316,0.93947 -3.376971,5.96681 -4.417969,15.08203 -0.609391,2.36133 -0.977554,3.54199 -1.104492,3.54199 l -0.457031,0 c -0.126968,0 -0.342788,-0.21582 -0.647461,-0.64746 0.228501,-3.85937 0.444321,-5.78906 0.647461,-5.78906 l -0.228516,-1.1045 0,-2.89453 c -1.5e-5,-6.1699 -1.472669,-9.94041 -4.417968,-11.31152 -1.015635,-0.15232 -1.828134,-0.22849 -2.4375,-0.22852 -2.412116,1.21878 -4.265629,3.36428 -5.560547,6.43653 -1.472658,5.58595 -2.208985,10.91797 -2.208985,15.99609 l -0.685547,0.41895 c -0.583983,0 -0.875975,-1.70117 -0.875976,-5.10352 l 0.228516,0 -0.228516,-0.41894 c 1.396484,-9.03905 2.500975,-13.55858 3.313476,-13.5586 -2e-6,-1.5742 1.853512,-3.85935 5.560547,-6.85547 1.117179,-0.457 2.526357,-0.68552 4.227539,-0.68554 m 18.624024,5.56054 0,0.22852 c 0.05075,0.30471 0.203094,0.45705 0.457031,0.45703 -3.1e-5,-0.2031 0.215789,-0.64744 0.647461,-1.33301 l -0.228516,0 c -0.584015,0.20315 -0.876007,0.41897 -0.875976,0.64746 m -15.082031,1.1045 0,0.22851 c 0.152328,0.27932 0.2285,0.49514 0.228515,0.64746 l 0.418946,0 0,-0.87597 -0.647461,0"
         style="font-size:78px;font-variant:normal;font-weight:bold;font-stretch:normal;text-align:center;text-anchor:middle;font-family:Mad Beef;-inkscape-font-specification:Mad Beef Bold"
         id="path3266" />
      <path
         d="m 112.61446,886.88341 c 3.09764,2e-5 5.0908,2.29787 5.97949,6.89355 l 0.22851,0.87598 c 1.75194,-3.27537 3.97361,-5.48435 6.66504,-6.62696 1.04099,-0.30466 2.29783,-0.457 3.77051,-0.45703 2.69138,3e-5 4.45602,1.91702 5.29395,5.75098 l 0,2.66602 c -4e-5,1.09181 -0.66019,5.38282 -1.98047,12.87304 l 0,1.79004 c -3e-5,2.51367 0.81246,3.77051 2.4375,3.77051 1.98043,0 4.41793,-2.74219 7.3125,-8.22656 0.58394,-0.43164 1.02828,-0.64746 1.33301,-0.64746 l 0.22851,0.41894 c -2.58988,6.95703 -5.62406,10.43554 -9.10254,10.43555 -2.66605,-0.58399 -3.99905,-2.42481 -3.99902,-5.52246 -3e-5,-0.38086 -0.13968,-0.76172 -0.41895,-1.14258 l 0.22852,-1.10449 c -3e-5,-0.15234 -0.0762,-0.22851 -0.22852,-0.22852 0.27927,-1.42187 0.41892,-3.41503 0.41895,-5.97949 l 0,-5.10352 c -0.73636,-3.68162 -1.91702,-5.52244 -3.54199,-5.52246 l -1.33301,0 c -1.57424,2e-5 -2.90725,0.73635 -3.99903,2.20899 -1.90431,0.93947 -3.37697,5.96681 -4.41796,15.08203 -0.6094,2.36133 -0.97756,3.54199 -1.1045,3.54199 l -0.45703,0 c -0.12697,0 -0.34279,-0.21582 -0.64746,-0.64746 0.2285,-3.85937 0.44432,-5.78906 0.64746,-5.78906 l -0.22851,-1.1045 0,-2.89453 c -2e-5,-6.1699 -1.47267,-9.94041 -4.41797,-11.31152 -1.01564,-0.15232 -1.82814,-0.22849 -2.4375,-0.22852 -2.41212,1.21878 -4.26563,3.36428 -5.56055,6.43653 -1.47266,5.58595 -2.20898,10.91797 -2.20898,15.99609 l -0.68555,0.41895 c -0.583983,0 -0.875975,-1.70117 -0.875976,-5.10352 l 0.228515,0 -0.228515,-0.41894 c 1.396486,-9.03905 2.500976,-13.55858 3.313476,-13.5586 0,-1.5742 1.85351,-3.85935 5.56055,-6.85547 1.11718,-0.457 2.52635,-0.68552 4.22754,-0.68554 m 18.62402,5.56054 0,0.22852 c 0.0507,0.30471 0.20309,0.45705 0.45703,0.45703 -3e-5,-0.2031 0.21579,-0.64744 0.64746,-1.33301 l -0.22851,0 c -0.58402,0.20315 -0.87601,0.41897 -0.87598,0.64746 m -15.08203,1.1045 0,0.22851 c 0.15233,0.27932 0.2285,0.49514 0.22851,0.64746 l 0.41895,0 0,-0.87597 -0.64746,0"
         style="font-size:78px;font-variant:normal;font-weight:bold;font-stretch:normal;text-align:center;text-anchor:middle;font-family:Mad Beef;-inkscape-font-specification:Mad Beef Bold"
         id="path3268" />
      <path
         d="m 157.4416,886.95958 c 5.12889,0.53323 7.69334,2.29787 7.69336,5.29394 l 0,0.49512 c -2e-5,2.25978 -1.9297,4.90041 -5.78906,7.92188 -2.97072,2.08204 -5.68751,3.12305 -8.15039,3.12304 l -0.49512,0 c -2.08203,-0.12694 -3.12305,-0.45702 -3.12304,-0.99023 l 0,-0.45703 0.49511,-0.72364 c 1.29492,0.3047 2.33593,0.45705 3.12305,0.45704 3.52929,10e-6 7.21092,-2.23437 11.04492,-6.70313 0.63475,-1.34568 0.95213,-2.46287 0.95215,-3.35156 -0.66017,-1.77732 -1.85353,-2.66599 -3.58008,-2.66602 l -0.99023,0 c -2.79298,0.15237 -5.66212,1.67581 -8.60742,4.57031 -2.89454,3.17385 -4.3418,6.29689 -4.3418,9.36915 0,1.72657 0.96484,3.25 2.89453,4.57031 0.38085,0 1.42187,0.48242 3.12305,1.44726 1.29491,10e-6 2.33592,0.0762 3.12304,0.22852 1.42187,0 4.77343,-1.11718 10.05469,-3.35156 2.23435,-1.0664 4.63376,-3.31347 7.19824,-6.74121 0.33005,0.0508 0.49509,0.21583 0.49512,0.49511 l 0,0.45703 c -0.68557,2.79298 -4.44338,6.23341 -11.27344,10.32129 -2.97071,1.92969 -6.2588,2.89453 -9.86425,2.89453 -7.03321,-1.04101 -10.54981,-4.48144 -10.54981,-10.32128 0,-3.63085 2.47559,-7.79491 7.42676,-12.49219 3.24999,-2.56443 6.29686,-3.84666 9.14062,-3.84668 m -13.21582,11.54004 0,0.49511 c 0.38086,2e-5 0.62207,-0.40623 0.72364,-1.21875 -0.22852,2e-5 -0.46973,0.24123 -0.72364,0.72364 m -1.44726,4.30371 0,0.2666 0.2666,0 c 0.30469,10e-6 0.45703,-0.16503 0.45703,-0.49512 l 0,-0.22851 -0.22851,0 c -0.33008,0.0508 -0.49512,0.20313 -0.49512,0.45703 m 0.49512,1.44726 -0.22852,0.49512 c 0.0508,0.3047 0.20312,0.45704 0.45703,0.45703 l 0.2666,-0.45703 c 0,-0.33007 -0.16504,-0.49511 -0.49511,-0.49512 m 0.49511,2.1709 0,0.49512 c 0.0508,0.30469 0.20313,0.45704 0.45703,0.45703 l 0.26661,0 0,-0.95215 -0.72364,0 m 2.39942,2.89453 0,0.22852 c 0.0508,0.30469 0.20312,0.45703 0.45703,0.45703 0.33007,0 0.49511,-0.15234 0.49512,-0.45703 l 0,-0.22852 -0.95215,0 m 4.30371,1.67578 -0.22852,0.45704 0.72364,0 c -1e-5,-0.30469 -0.16505,-0.45703 -0.49512,-0.45704 m 2.39941,0.45704 0,0.2666 0.95215,0 0,-0.2666 -0.95215,0"
         style="font-size:78px;font-variant:normal;font-weight:bold;font-stretch:normal;text-align:center;text-anchor:middle;font-family:Mad Beef;-inkscape-font-specification:Mad Beef Bold"
         id="path3270" />
      <path
         d="m 173.66621,886.00743 0.30469,0 c 0.91406,0.48245 1.37109,1.21878 1.3711,2.20898 l 0,6.05567 0.2666,0 c 2.81835,-4.77342 6.58885,-7.16013 11.31152,-7.16016 2.9453,3e-5 4.78611,1.84085 5.52246,5.52246 -2e-5,1.01565 -0.45705,3.3135 -1.37109,6.89356 0.38084,1.1172 0.83787,1.67579 1.37109,1.67578 0.40623,10e-6 1.98045,-1.57421 4.72266,-4.72266 l 0.5332,0 c -2e-5,1.47267 -1.01565,3.41506 -3.04687,5.82715 -0.76174,0.73634 -1.49807,1.1045 -2.20899,1.10449 l -0.2666,0 c -2.31056,10e-6 -3.69435,-1.66307 -4.15137,-4.98925 -0.35548,-1.37108 -0.53322,-2.28514 -0.5332,-2.74219 l 0.2666,-1.10449 c -1e-5,-1.42186 -1.56154,-2.43748 -4.68457,-3.04688 -3.02149,2e-5 -5.87793,3.12307 -8.56934,9.36914 -1.54882,8.48047 -2.74218,12.7207 -3.58007,12.7207 l -0.26661,0 c -0.38085,0 -0.57128,-0.19043 -0.57128,-0.57128 2.20898,-11.75585 3.31347,-19.48729 3.31347,-23.19434 -0.35547,-1.85349 -0.5332,-2.95798 -0.5332,-3.31348 l 0.7998,-0.5332"
         style="font-size:78px;font-variant:normal;font-weight:bold;font-stretch:normal;text-align:center;text-anchor:middle;font-family:Mad Beef;-inkscape-font-specification:Mad Beef Bold"
         id="path3272" />
      <path
         d="m 210.15254,900.86095 c 1.65038,0.53321 2.47557,1.87891 2.47559,4.0371 l -0.68555,0.45704 -2.01855,-2.47559 -0.45703,0 c -1.80275,1.70118 -2.70412,3.58009 -2.70411,5.63672 -1e-5,1.11719 0.38085,1.86621 1.14258,2.24707 l 0.22852,0 1.33301,-1.14258 0.22851,0 c 0.30468,0.0508 0.45702,0.20313 0.45703,0.45703 -1.06642,2.23438 -2.12013,3.35156 -3.16113,3.35156 l -2.01856,0 c -1.19336,-0.73632 -1.79004,-1.70117 -1.79003,-2.89453 l 0,-1.59961 c -1e-5,-3.91014 1.80272,-6.52538 5.4082,-7.8457 l 1.56152,-0.22851"
         style="font-size:78px;font-variant:normal;font-weight:bold;font-stretch:normal;text-align:center;text-anchor:middle;font-family:Mad Beef;-inkscape-font-specification:Mad Beef Bold"
         id="path3274" />
      <path
         d="m 231.32832,900.86095 c 1.65038,0.53321 2.47557,1.87891 2.47559,4.0371 l -0.68555,0.45704 -2.01855,-2.47559 -0.45703,0 c -1.80275,1.70118 -2.70412,3.58009 -2.70411,5.63672 -1e-5,1.11719 0.38085,1.86621 1.14258,2.24707 l 0.22852,0 1.33301,-1.14258 0.22851,0 c 0.30468,0.0508 0.45702,0.20313 0.45703,0.45703 -1.06642,2.23438 -2.12013,3.35156 -3.16113,3.35156 l -2.01855,0 c -1.19337,-0.73632 -1.79005,-1.70117 -1.79004,-2.89453 l 0,-1.59961 c -1e-5,-3.91014 1.80272,-6.52538 5.4082,-7.8457 l 1.56152,-0.22851"
         style="font-size:78px;font-variant:normal;font-weight:bold;font-stretch:normal;text-align:center;text-anchor:middle;font-family:Mad Beef;-inkscape-font-specification:Mad Beef Bold"
         id="path3276" />
      <path
         d="m 252.5041,900.86095 c 1.65038,0.53321 2.47557,1.87891 2.47559,4.0371 l -0.68555,0.45704 -2.01855,-2.47559 -0.45703,0 c -1.80275,1.70118 -2.70411,3.58009 -2.7041,5.63672 -1e-5,1.11719 0.38085,1.86621 1.14257,2.24707 l 0.22852,0 1.33301,-1.14258 0.22851,0 c 0.30468,0.0508 0.45702,0.20313 0.45703,0.45703 -1.06641,2.23438 -2.12012,3.35156 -3.16113,3.35156 l -2.01855,0 c -1.19337,-0.73632 -1.79005,-1.70117 -1.79004,-2.89453 l 0,-1.59961 c -1e-5,-3.91014 1.80272,-6.52538 5.4082,-7.8457 l 1.56152,-0.22851"
         style="font-size:78px;font-variant:normal;font-weight:bold;font-stretch:normal;text-align:center;text-anchor:middle;font-family:Mad Beef;-inkscape-font-specification:Mad Beef Bold"
         id="path3278" />
    </g>
  </g>
</svg>
